<svg width="516" height="561" viewBox="0 0 516 561" fill="none" xmlns="http://www.w3.org/2000/svg">
<path d="M264.133 550.093C387.589 550.093 487.67 537.982 487.67 523.042C487.67 508.102 387.589 495.991 264.133 495.991C140.677 495.991 40.5957 508.102 40.5957 523.042C40.5957 537.982 140.677 550.093 264.133 550.093Z" fill="#EBEBEB"/>
<path d="M376.606 427.852H292.693V433.404H376.606V427.852Z" fill="#455A64"/>
<path d="M299 234.697L298.597 261L296.043 427.851L295.96 433.403L294.836 506.593H290.56L289.436 433.403L289.353 427.851L286.799 261L286.396 234.697H299Z" fill="#455A64"/>
<path d="M286.396 234.697H299L298.597 261H286.799L286.396 234.697Z" fill="#263238"/>
<path d="M382.904 234.697L382.501 261L378.74 506.593H374.465L373.341 433.403L373.257 427.851L370.703 261L370.301 234.697H382.904Z" fill="#455A64"/>
<path d="M382.904 234.697L382.501 261H370.703L370.301 234.697H382.904Z" fill="#263238"/>
<path d="M337.477 427.852H253.564V433.404H337.477V427.852Z" fill="#37474F"/>
<path d="M259.859 234.697L259.456 261L256.902 427.851L256.819 433.403L255.695 506.593H251.42L247.658 261L247.256 234.697H259.859Z" fill="#37474F"/>
<path d="M247.256 234.697H259.859L259.456 261H247.658L247.256 234.697Z" fill="#263238"/>
<path d="M343.777 234.697L343.374 261L340.82 427.851L340.737 433.403L339.613 506.593H335.338L334.214 433.403L334.13 427.851L331.576 261L331.174 234.697H343.777Z" fill="#37474F"/>
<path d="M331.174 234.697H343.777L343.374 261H331.576L331.174 234.697Z" fill="#263238"/>
<path d="M389.457 222.455H242.246V236.863H389.457V222.455Z" fill="#FDC886"/>
<path opacity="0.1" d="M360.75 222.455H242.248V236.863H360.75V222.455Z" fill="#263238"/>
<path d="M398.827 95.6197L389.431 222.455H301.626L300.835 210.282L293.242 94.5371L387.057 95.4948L398.827 95.6197Z" fill="#FDC886"/>
<path opacity="0.1" d="M387.057 95.4948L380.603 222.455H301.626L300.835 210.282L293.242 94.5371L387.057 95.4948Z" fill="#263238"/>
<path d="M390.334 210.282L389.432 222.455H301.627L300.836 210.282H390.334Z" fill="#263238"/>
<path d="M283.98 26.7055C266.749 45.0841 265.146 90.3093 288.825 119.604C308.872 144.405 352.879 147.258 370.981 131.075C390.189 113.904 387.036 86.3215 370.856 75.5576C355.229 65.1615 337.294 67.4156 327.631 56.0604C323.007 50.6263 320.826 38.752 314.341 30.4268C307.107 21.1383 292.812 17.2852 283.98 26.7055Z" fill="#263238"/>
<path d="M304.694 96.2038C300.211 125.921 296.269 149.003 288.662 155.402C282.527 160.565 273.547 164.743 264.192 168.033C253.213 171.878 241.679 174.529 233.573 176.18C230.38 176.833 227.715 177.318 225.828 177.679C221.15 178.54 209.741 148.337 212.628 144.145C213.294 143.188 216.32 142.147 220.609 141.078C235.058 137.497 263.887 133.638 265.413 131.792C266.996 129.863 274.838 116.441 285.539 98.7438C292.924 86.5155 299.669 82.3793 302.959 85.1414C304.805 86.7099 305.554 90.4713 304.694 96.2038Z" fill="#FDFDFD"/>
<path d="M233.57 176.183C232.972 176.551 224.45 181.518 219.095 183.555C215.1 185.073 203.484 189.139 201.376 184.907C199.934 182.022 206.484 178.829 211.064 176.466C213.478 175.223 216.343 172.356 215.475 170.81C213.959 168.108 207.758 171.451 203.73 174.252C195.939 179.671 185.741 189.111 180.409 185.369C178.395 183.953 180.355 180.919 183.335 177.858C178.395 181.546 173.062 184.675 170.762 183.192C169.442 182.349 169.28 181.056 169.85 179.518C168.286 180.171 166.856 180.185 165.782 179.219C163.946 177.586 164.558 174.905 166.19 172.075C165.592 172.061 165.034 171.802 164.57 171.19C160.542 166.02 177.197 148.875 183.279 146.903C201.172 141.079 220.711 141.079 220.711 141.079C228.343 146.223 233.583 176.169 233.57 176.183Z" fill="#FDFDFD"/>
<path d="M205.354 161.358C201.112 162.381 196.963 164.27 193.566 167.033C189.544 170.303 186.487 174.574 182.824 178.201C182.725 178.3 182.886 178.454 182.981 178.351C184.691 176.49 186.602 174.793 188.387 173.002C190.129 171.253 191.829 169.434 193.69 167.812C197.101 164.837 201 162.626 205.376 161.43C205.423 161.417 205.401 161.347 205.354 161.358Z" fill="#263238"/>
<path d="M201.324 153.893C196.636 155.594 191.831 157.32 187.564 159.951C182.895 162.83 179.414 167.187 175.982 171.387C173.923 173.909 171.914 176.474 169.971 179.088C169.889 179.197 170.039 179.347 170.128 179.237C173.603 174.904 177.207 170.672 180.94 166.56C184.453 162.691 188.472 159.621 193.191 157.37C195.85 156.101 198.601 155.038 201.348 153.977C201.401 153.955 201.377 153.873 201.324 153.893Z" fill="#263238"/>
<path d="M195.649 147.539C191.068 148.875 187.07 150.025 183.148 152.858C177.955 156.608 173.136 162.607 171.447 164.732C169.581 167.079 167.795 169.487 166.046 171.922C165.975 172.02 166.146 172.148 166.22 172.049C170.235 166.71 174.614 161.592 179.286 156.816C181.52 154.534 183.983 152.504 186.812 151.002C189.61 149.517 192.658 148.556 195.658 147.572C195.679 147.564 195.67 147.533 195.649 147.539Z" fill="#263238"/>
<path d="M304.693 96.204C300.21 125.921 296.268 149.003 288.662 155.402C282.527 160.566 273.547 164.743 264.191 168.033L302.958 85.1416C304.804 86.71 305.554 90.4715 304.693 96.204Z" fill="#263238"/>
<path d="M306.609 91.0679C306.622 91.5259 306.622 92.0117 306.595 92.4975C306.581 92.8862 306.553 93.2748 306.511 93.6912C305.359 106.516 302.861 115.691 302.861 115.691L301.64 115.733L300.446 115.774L290.785 116.094L289.356 116.149L279.723 116.468L278.488 116.51L274.948 116.621L272.145 116.718C272.145 116.718 281.847 98.0912 292.923 86.8484C294.047 85.7102 295.241 84.7803 296.421 84.1001C301.487 81.1715 306.484 82.7538 306.609 91.0679Z" fill="#FDC886"/>
<path d="M301.056 84.5027C301.452 84.5027 301.772 84.1821 301.772 83.7865C301.772 83.391 301.452 83.0703 301.056 83.0703C300.661 83.0703 300.34 83.391 300.34 83.7865C300.34 84.1821 300.661 84.5027 301.056 84.5027Z" fill="white"/>
<path d="M290.788 99.9633C290.788 100.359 290.467 100.679 290.072 100.679C289.676 100.679 289.355 100.359 289.355 99.9633C289.355 99.5677 289.676 99.2471 290.072 99.2471C290.467 99.2471 290.788 99.5677 290.788 99.9633Z" fill="white"/>
<path d="M301.056 100.679C301.452 100.679 301.772 100.359 301.772 99.9633C301.772 99.5677 301.452 99.2471 301.056 99.2471C300.661 99.2471 300.34 99.5677 300.34 99.9633C300.34 100.359 300.661 100.679 301.056 100.679Z" fill="white"/>
<path d="M295.564 92.4988C295.959 92.4988 296.28 92.1782 296.28 91.7826C296.28 91.3871 295.959 91.0664 295.564 91.0664C295.168 91.0664 294.848 91.3871 294.848 91.7826C294.848 92.1782 295.168 92.4988 295.564 92.4988Z" fill="white"/>
<path d="M306.609 91.0684C306.623 91.5264 306.623 92.0122 306.595 92.498H306.554C306.151 92.498 305.832 92.1788 305.832 91.7762C305.832 91.3876 306.151 91.0684 306.554 91.0684H306.609Z" fill="white"/>
<path d="M279.807 116.136C279.807 116.261 279.779 116.372 279.723 116.469L278.488 116.51C278.419 116.399 278.377 116.274 278.377 116.136C278.377 115.747 278.696 115.428 279.085 115.428C279.487 115.428 279.807 115.747 279.807 116.136Z" fill="white"/>
<path d="M290.785 116.094L289.355 116.15V116.136C289.355 115.747 289.675 115.428 290.077 115.428C290.452 115.428 290.757 115.719 290.785 116.094Z" fill="white"/>
<path d="M301.639 115.733L300.445 115.775C300.57 115.567 300.792 115.428 301.056 115.428C301.292 115.428 301.514 115.553 301.639 115.733Z" fill="white"/>
<path d="M284.579 108.677C284.975 108.677 285.296 108.356 285.296 107.96C285.296 107.565 284.975 107.244 284.579 107.244C284.184 107.244 283.863 107.565 283.863 107.96C283.863 108.356 284.184 108.677 284.579 108.677Z" fill="white"/>
<path d="M295.564 108.677C295.959 108.677 296.28 108.356 296.28 107.96C296.28 107.565 295.959 107.244 295.564 107.244C295.168 107.244 294.848 107.565 294.848 107.96C294.848 108.356 295.168 108.677 295.564 108.677Z" fill="white"/>
<path d="M306.608 91.0679C306.621 91.5259 306.621 92.0117 306.594 92.4975C306.58 92.8862 306.552 93.2748 306.51 93.6912C305.358 106.516 302.86 115.691 302.86 115.691L301.639 115.733L300.445 115.774L290.784 116.094L289.355 116.149L279.722 116.468L278.487 116.51L274.947 116.621L296.42 84.1001C301.486 81.1715 306.483 82.7538 306.608 91.0679Z" fill="#263238"/>
<path d="M237.948 447.273C241.378 446.69 324.658 402.156 326.761 398.45C327.566 397.049 321.786 384.542 314.376 369.627C312.775 366.405 311.104 363.089 309.386 359.731C298.265 337.915 285.955 315.025 285.955 315.025L230.16 344.655L255.127 388.545L260.6 398.183C260.6 398.183 236.342 429.495 234.471 433.808C232.618 438.11 234.518 447.854 237.948 447.273Z" fill="#FDFDFD"/>
<path d="M237.947 447.273C241.377 446.69 324.657 402.156 326.76 398.45C327.732 396.738 319.001 378.63 309.385 359.731L255.125 388.545L260.598 398.183C260.598 398.183 236.34 429.495 234.469 433.808C232.618 438.11 234.518 447.854 237.947 447.273Z" fill="white"/>
<path d="M237.947 447.273C241.377 446.69 324.657 402.156 326.76 398.45C327.565 397.05 321.785 384.542 314.375 369.627L260.598 398.184C260.598 398.184 236.34 429.496 234.469 433.808C232.618 438.111 234.518 447.855 237.947 447.273Z" fill="#FDC886"/>
<path d="M237.361 443.302C251.138 435.495 307.442 405.301 321.654 398.631C321.769 398.577 321.811 398.653 321.701 398.718C308.215 406.756 251.668 436.491 237.483 443.532C237.183 443.68 237.069 443.467 237.361 443.302Z" fill="#263238"/>
<path d="M238.225 427.949C241.463 426.044 245.54 425.885 248.399 426.892C251.146 427.859 254.055 429.729 255.504 432.677C255.546 432.762 255.393 432.846 255.335 432.767C251.616 427.73 244.081 425.59 238.317 428.124C238.201 428.174 238.114 428.013 238.225 427.949Z" fill="#263238"/>
<path d="M255.926 402.468C261.473 399.402 269.006 397.91 274.921 400.623C275.15 400.729 274.998 401.052 274.787 401.057C268.343 401.154 262.504 401.781 256.198 403.208C255.754 403.308 255.529 402.689 255.926 402.468Z" fill="#263238"/>
<path d="M252.512 406.457C258.059 403.391 265.592 401.899 271.507 404.613C271.736 404.718 271.584 405.042 271.371 405.046C264.928 405.143 259.089 405.77 252.783 407.197C252.34 407.297 252.115 406.677 252.512 406.457Z" fill="#263238"/>
<path d="M249.098 410.445C254.645 407.379 262.177 405.887 268.093 408.6C268.322 408.706 268.169 409.03 267.958 409.033C261.515 409.13 255.676 409.758 249.37 411.185C248.926 411.284 248.701 410.664 249.098 410.445Z" fill="#263238"/>
<path d="M245.685 414.434C251.231 411.368 258.764 409.876 264.679 412.589C264.908 412.695 264.756 413.018 264.545 413.022C258.102 413.12 252.262 413.747 245.957 415.174C245.511 415.274 245.288 414.653 245.685 414.434Z" fill="#263238"/>
<path d="M311.007 387.272C317.285 383.938 322.478 393.691 316.189 397.03C309.911 400.364 304.718 390.612 311.007 387.272Z" fill="#263238"/>
<path d="M246.741 398.74C251.836 401.018 257.741 401.01 263.19 401.634C263.755 401.7 264.049 401.11 263.953 400.646C264.049 400.603 264.113 400.507 264.042 400.393C261.155 395.744 256.257 391.253 251.324 388.82C248.277 387.317 243.489 386.931 241.915 390.788C240.427 394.436 243.766 397.409 246.741 398.74ZM244.006 394.249C241.311 387.872 249.293 389.609 251.495 390.806C252.909 391.575 254.257 392.53 255.552 393.484C258.264 395.483 260.642 397.83 263.127 400.08C260.469 399.609 257.795 399.37 255.121 398.998C251.935 398.554 245.492 397.765 244.006 394.249Z" fill="#263238"/>
<path d="M281.98 386.217C279.591 382.804 275.007 384.241 272.368 386.38C268.096 389.844 264.314 395.307 262.526 400.48C262.481 400.608 262.566 400.687 262.669 400.708C262.678 401.181 263.095 401.691 263.632 401.503C268.809 399.689 274.568 398.39 279.033 395.041C281.64 393.085 284.24 389.447 281.98 386.217ZM270.918 397.145C268.393 398.1 265.838 398.924 263.349 399.971C265.277 397.226 267.076 394.412 269.278 391.862C270.329 390.646 271.433 389.417 272.642 388.353C274.524 386.699 281.923 383.239 280.706 390.054C280.035 393.812 273.927 396.008 270.918 397.145Z" fill="#263238"/>
<path d="M269.146 265.22C270.451 281.418 307.886 352.566 307.886 352.566L258.736 377.203L248.896 382.145C248.896 382.145 203.411 301.96 205.868 265.872C207.963 235.253 260.967 196.666 293.572 158.94H337.521C323.655 201.649 272.784 248.8 269.231 263.193C269.106 263.707 269.078 264.387 269.148 265.192V265.22H269.146Z" fill="#455A64"/>
<path d="M248.838 370.359C258.5 365.19 255.658 366.545 265.376 361.479C270.132 359 294.003 346.483 298.823 344.907C298.93 344.873 299.011 345.031 298.919 345.096C294.812 348.073 270.677 360.071 265.878 362.463C256.07 367.35 258.835 365.845 248.976 370.628C248.79 370.719 248.657 370.456 248.838 370.359Z" fill="#263238"/>
<path d="M332.36 165.676C318.304 189.222 302.694 211.751 285.126 232.822C280.847 237.955 276.428 242.959 272.003 247.965C268.257 252.204 264.466 256.887 263.753 262.696C262.959 269.161 265.769 275.446 268.037 281.333C270.538 287.823 273.054 294.309 275.698 300.744C278.55 307.684 281.543 314.567 284.864 321.296C286.563 324.738 288.337 328.143 290.201 331.498C291.134 333.176 292.089 334.842 293.069 336.492C293.558 337.318 297.002 343.006 297.5 343.827C297.664 344.098 298.087 344.421 297.667 343.725C296.727 342.173 292.874 335.734 291.99 334.15C288.498 327.903 285.371 321.469 282.411 314.956C279.412 308.356 276.635 301.659 273.965 294.918C271.33 288.264 268.591 281.602 266.276 274.829C265.093 271.37 264.115 267.71 264.324 264.022C264.53 260.398 265.961 257.107 267.979 254.133C271.76 248.562 276.804 243.754 281.161 238.631C290.195 228.007 298.781 217.003 306.893 205.659C316.084 192.803 324.719 179.505 332.535 165.766C332.593 165.661 332.424 165.568 332.36 165.676Z" fill="#263238"/>
<path d="M307.885 352.567L258.736 377.204L269.146 265.22C270.451 281.418 307.885 352.567 307.885 352.567Z" fill="#263238"/>
<path d="M289.416 534.36C292.896 534.365 382.498 504.53 385.198 501.232C386.228 499.987 382.644 486.685 377.857 470.732C376.824 467.287 375.736 463.737 374.61 460.136C367.333 436.756 359.063 412.117 359.063 412.117L299.065 431.902L316.264 479.377L320.031 489.801C320.031 489.801 290.834 516.568 288.263 520.502C285.709 524.43 285.936 534.356 289.416 534.36Z" fill="#FDFDFD"/>
<path d="M289.416 534.36C292.896 534.366 382.498 504.531 385.198 501.233C386.444 499.71 380.896 480.389 374.61 460.137L316.264 479.376L320.031 489.8C320.031 489.8 290.834 516.567 288.263 520.501C285.709 524.43 285.936 534.356 289.416 534.36Z" fill="white"/>
<path d="M289.416 534.36C292.896 534.365 382.498 504.53 385.198 501.232C386.228 499.987 382.644 486.685 377.857 470.732L320.031 489.801C320.031 489.801 290.834 516.568 288.263 520.502C285.709 524.43 285.936 534.356 289.416 534.36Z" fill="#FDC886"/>
<path d="M289.508 530.348C304.405 524.978 364.998 504.726 380.133 500.549C380.257 500.515 380.283 500.598 380.164 500.644C365.515 506.289 304.758 526.05 289.588 530.595C289.269 530.69 289.193 530.461 289.508 530.348Z" fill="#263238"/>
<path d="M292.952 515.36C296.466 514.029 300.511 514.562 303.159 516.036C305.704 517.453 308.255 519.788 309.186 522.939C309.212 523.029 309.049 523.086 309.004 522.999C306.189 517.406 299.124 514.024 293.014 515.549C292.891 515.578 292.833 515.405 292.952 515.36Z" fill="#263238"/>
<path d="M314.701 493.234C320.684 491.15 328.361 490.95 333.734 494.624C333.943 494.767 333.737 495.059 333.529 495.028C327.161 494.035 321.301 493.669 314.844 494.01C314.388 494.034 314.272 493.384 314.701 493.234Z" fill="#263238"/>
<path d="M310.663 496.59C316.647 494.505 324.324 494.305 329.697 497.979C329.905 498.122 329.699 498.415 329.49 498.383C323.123 497.391 317.262 497.024 310.806 497.366C310.351 497.388 310.236 496.74 310.663 496.59Z" fill="#263238"/>
<path d="M306.625 499.944C312.608 497.859 320.285 497.66 325.658 501.334C325.866 501.475 325.661 501.769 325.452 501.738C319.085 500.745 313.223 500.377 306.766 500.72C306.312 500.742 306.196 500.094 306.625 499.944Z" fill="#263238"/>
<path d="M302.586 503.299C308.569 501.214 316.246 501.014 321.619 504.688C321.827 504.83 321.622 505.124 321.412 505.092C315.046 504.1 309.184 503.733 302.727 504.075C302.273 504.097 302.157 503.447 302.586 503.299Z" fill="#263238"/>
<path d="M371.557 487.556C378.308 485.33 381.779 495.819 375.017 498.05C368.264 500.275 364.793 489.787 371.557 487.556Z" fill="#263238"/>
<path d="M306.276 488.008C310.914 491.114 316.735 492.102 322.001 493.637C322.547 493.797 322.935 493.265 322.921 492.792C323.023 492.766 323.102 492.682 323.052 492.557C320.991 487.487 316.922 482.235 312.47 479.004C309.721 477.008 305.066 475.818 302.863 479.355C300.78 482.701 303.57 486.195 306.276 488.008ZM304.34 483.12C302.761 476.38 310.334 479.439 312.302 480.991C313.566 481.988 314.734 483.157 315.848 484.316C318.184 486.743 320.13 489.458 322.202 492.095C319.662 491.182 317.065 490.495 314.493 489.677C311.429 488.702 305.21 486.836 304.34 483.12Z" fill="#263238"/>
<path d="M343.123 481.616C341.345 477.848 336.584 478.49 333.622 480.153C328.825 482.847 324.175 487.593 321.541 492.39C321.476 492.508 321.546 492.601 321.644 492.637C321.574 493.106 321.898 493.678 322.458 493.583C327.867 492.669 333.762 492.36 338.73 489.813C341.629 488.327 344.805 485.18 343.123 481.616ZM330.374 490.52C327.724 491.035 325.066 491.415 322.438 492.029C324.801 489.648 327.048 487.178 329.651 485.037C330.892 484.016 332.187 482.99 333.558 482.146C335.693 480.833 343.57 478.672 341.22 485.184C339.924 488.774 333.532 489.906 330.374 490.52Z" fill="#263238"/>
<path d="M309.647 474.254L374.539 452.848C374.539 452.848 343.397 362.999 335.961 317.958C332.047 294.246 350.499 226.871 357.046 220.057C373.783 202.64 374.539 184.412 362.423 158.943L307.614 158.989C307.614 158.989 310.969 185.89 310.493 186.962C298.189 214.638 262.726 276.878 268.495 323.496C277.901 399.506 309.647 474.254 309.647 474.254Z" fill="#455A64"/>
<path d="M307.724 460.919C321.071 455.551 363.677 441.64 368.423 440.828C368.527 440.809 368.585 440.976 368.492 441.027C364.26 443.326 341.945 450.975 307.823 461.205C307.637 461.26 307.544 460.991 307.724 460.919Z" fill="#263238"/>
<path d="M306.242 160.029C307.124 167.062 307.399 179.118 311.492 179.118C315.454 179.118 314.188 164.413 314.144 161.022C314.103 157.947 315.179 158.317 315.461 161.933C316.226 171.743 316.375 180.421 311.132 180.261C305.789 180.099 305.237 164.867 305.203 161.385C305.185 159.586 305.963 157.809 306.242 160.029Z" fill="#263238"/>
<path d="M311.244 179.593C311.552 180.949 311.739 185.988 311.431 187.036C311.372 187.238 310.576 187.122 310.49 186.962C309.956 185.963 310.122 181.113 309.925 179.824C309.796 178.967 311.055 178.758 311.244 179.593Z" fill="#263238"/>
<path d="M310.492 186.963C300.444 204.437 285.758 237.439 284.753 243.485C284.703 243.789 285.031 243.939 285.154 243.642C287.446 238.13 302.754 204.897 311.435 187.037C311.604 186.687 310.664 186.663 310.492 186.963Z" fill="#263238"/>
<path d="M338.169 264.559C342.532 247.715 347.642 230.787 356.522 215.705C358.976 211.537 361.945 207.679 364.264 203.434C366.441 199.453 367.682 195.134 367.768 190.587C367.95 180.886 363.809 171.653 359.801 163.039C359.683 162.787 359.315 163.017 359.431 163.267C363.294 171.62 367.326 180.607 367.257 189.996C367.222 194.666 365.994 199.066 363.731 203.14C361.679 206.838 359.122 210.234 356.92 213.843C347.991 228.482 342.641 244.942 338.276 261.426C333.62 279.008 328.086 297.101 330.29 315.464C331.384 324.572 333.767 333.459 336.128 342.302C338.62 351.632 341.21 360.937 343.846 370.227C349.761 391.082 355.694 412.019 362.577 432.578C362.603 432.657 362.725 432.621 362.702 432.54C357.244 413.891 351.435 395.354 346.168 376.647C343.55 367.35 340.995 358.035 338.503 348.704C336.021 339.412 333.326 330.117 331.709 320.624C330.052 310.896 330.038 301.288 331.784 291.569C333.419 282.479 335.852 273.498 338.169 264.559Z" fill="#263238"/>
<path d="M364.642 160.467C362.088 161.98 359.409 163.312 356.661 164.492C356.23 164.673 355.8 164.853 355.356 165.02C347.736 168.101 339.547 169.947 331.524 170.919C307.137 173.889 284.124 168.809 282.181 165.644L284.776 141.007L284.915 139.675L285.262 136.33C285.262 136.33 279.238 128.612 278.919 119.715C278.891 118.869 278.988 117.911 279.196 116.842C279.266 116.426 279.363 115.995 279.474 115.537C281.251 108.32 286.997 97.6322 291.897 90.2203C293.937 87.1251 295.825 84.6128 297.213 83.1554C302.792 77.3119 308.969 75.9794 315.062 77.645H315.076C317.713 78.3668 320.337 79.6576 322.877 81.3926C328.22 85.0153 333.245 90.5951 337.437 96.9938C341.823 103.698 346.487 113.525 350.678 123.449C350.831 123.796 350.97 124.143 351.109 124.49C358.673 142.479 364.642 160.467 364.642 160.467Z" fill="#FDC886"/>
<path d="M301.056 84.5017C301.452 84.5017 301.772 84.1811 301.772 83.7855C301.772 83.39 301.452 83.0693 301.056 83.0693C300.661 83.0693 300.34 83.39 300.34 83.7855C300.34 84.1811 300.661 84.5017 301.056 84.5017Z" fill="white"/>
<path d="M312.042 84.5017C312.438 84.5017 312.759 84.1811 312.759 83.7855C312.759 83.39 312.438 83.0693 312.042 83.0693C311.647 83.0693 311.326 83.39 311.326 83.7855C311.326 84.1811 311.647 84.5017 312.042 84.5017Z" fill="white"/>
<path d="M323.741 83.7855C323.741 84.1811 323.42 84.5017 323.025 84.5017C322.629 84.5017 322.309 84.1811 322.309 83.7855C322.309 83.39 322.629 83.0693 323.025 83.0693C323.42 83.0693 323.741 83.39 323.741 83.7855Z" fill="white"/>
<path d="M290.79 99.9623C290.79 100.358 290.469 100.679 290.074 100.679C289.678 100.679 289.357 100.358 289.357 99.9623C289.357 99.5667 289.678 99.2461 290.074 99.2461C290.469 99.2461 290.79 99.5667 290.79 99.9623Z" fill="white"/>
<path d="M301.056 100.679C301.452 100.679 301.772 100.358 301.772 99.9623C301.772 99.5668 301.452 99.2461 301.056 99.2461C300.661 99.2461 300.34 99.5668 300.34 99.9623C300.34 100.358 300.661 100.679 301.056 100.679Z" fill="white"/>
<path d="M312.042 100.679C312.438 100.679 312.759 100.358 312.759 99.9623C312.759 99.5668 312.438 99.2461 312.042 99.2461C311.647 99.2461 311.326 99.5668 311.326 99.9623C311.326 100.358 311.647 100.679 312.042 100.679Z" fill="white"/>
<path d="M323.741 99.9623C323.741 100.358 323.42 100.679 323.025 100.679C322.629 100.679 322.309 100.358 322.309 99.9623C322.309 99.5667 322.629 99.2461 323.025 99.2461C323.42 99.2461 323.741 99.5667 323.741 99.9623Z" fill="white"/>
<path d="M334.007 100.679C334.403 100.679 334.723 100.358 334.723 99.9623C334.723 99.5668 334.403 99.2461 334.007 99.2461C333.612 99.2461 333.291 99.5668 333.291 99.9623C333.291 100.358 333.612 100.679 334.007 100.679Z" fill="white"/>
<path d="M295.566 92.4978C295.961 92.4978 296.282 92.1772 296.282 91.7816C296.282 91.3861 295.961 91.0654 295.566 91.0654C295.17 91.0654 294.85 91.3861 294.85 91.7816C294.85 92.1772 295.17 92.4978 295.566 92.4978Z" fill="white"/>
<path d="M307.264 91.7817C307.264 92.1772 306.944 92.4978 306.548 92.4978C306.153 92.4978 305.832 92.1772 305.832 91.7817C305.832 91.3861 306.153 91.0654 306.548 91.0654C306.944 91.064 307.264 91.3847 307.264 91.7817Z" fill="white"/>
<path d="M317.533 92.4978C317.928 92.4978 318.249 92.1772 318.249 91.7816C318.249 91.3861 317.928 91.0654 317.533 91.0654C317.137 91.0654 316.816 91.3861 316.816 91.7816C316.816 92.1772 317.137 92.4978 317.533 92.4978Z" fill="white"/>
<path d="M328.517 92.4978C328.913 92.4978 329.233 92.1772 329.233 91.7816C329.233 91.3861 328.913 91.0654 328.517 91.0654C328.121 91.0654 327.801 91.3861 327.801 91.7816C327.801 92.1772 328.121 92.4978 328.517 92.4978Z" fill="white"/>
<path d="M279.808 116.134C279.808 116.495 279.544 116.8 279.197 116.842C279.267 116.425 279.364 115.995 279.475 115.537C279.683 115.662 279.808 115.884 279.808 116.134Z" fill="white"/>
<path d="M290.79 116.14C290.79 116.536 290.469 116.856 290.074 116.856C289.678 116.856 289.357 116.536 289.357 116.14C289.357 115.744 289.678 115.424 290.074 115.424C290.469 115.424 290.79 115.744 290.79 116.14Z" fill="white"/>
<path d="M301.056 116.856C301.452 116.856 301.772 116.536 301.772 116.14C301.772 115.744 301.452 115.424 301.056 115.424C300.661 115.424 300.34 115.744 300.34 116.14C300.34 116.536 300.661 116.856 301.056 116.856Z" fill="white"/>
<path d="M312.042 116.856C312.438 116.856 312.759 116.536 312.759 116.14C312.759 115.744 312.438 115.424 312.042 115.424C311.647 115.424 311.326 115.744 311.326 116.14C311.326 116.536 311.647 116.856 312.042 116.856Z" fill="white"/>
<path d="M323.741 116.14C323.741 116.536 323.42 116.856 323.025 116.856C322.629 116.856 322.309 116.536 322.309 116.14C322.309 115.744 322.629 115.424 323.025 115.424C323.42 115.424 323.741 115.744 323.741 116.14Z" fill="white"/>
<path d="M334.007 116.856C334.403 116.856 334.723 116.536 334.723 116.14C334.723 115.744 334.403 115.424 334.007 115.424C333.612 115.424 333.291 115.744 333.291 116.14C333.291 116.536 333.612 116.856 334.007 116.856Z" fill="white"/>
<path d="M345.71 116.14C345.71 116.536 345.389 116.856 344.994 116.856C344.598 116.856 344.277 116.536 344.277 116.14C344.277 115.744 344.598 115.424 344.994 115.424C345.389 115.424 345.71 115.744 345.71 116.14Z" fill="white"/>
<path d="M284.581 108.676C284.977 108.676 285.298 108.355 285.298 107.959C285.298 107.564 284.977 107.243 284.581 107.243C284.186 107.243 283.865 107.564 283.865 107.959C283.865 108.355 284.186 108.676 284.581 108.676Z" fill="white"/>
<path d="M295.566 108.676C295.961 108.676 296.282 108.355 296.282 107.959C296.282 107.564 295.961 107.243 295.566 107.243C295.17 107.243 294.85 107.564 294.85 107.959C294.85 108.355 295.17 108.676 295.566 108.676Z" fill="white"/>
<path d="M307.264 107.959C307.264 108.355 306.944 108.676 306.548 108.676C306.153 108.676 305.832 108.355 305.832 107.959C305.832 107.564 306.153 107.243 306.548 107.243C306.944 107.242 307.264 107.562 307.264 107.959Z" fill="white"/>
<path d="M317.533 108.676C317.928 108.676 318.249 108.355 318.249 107.959C318.249 107.564 317.928 107.243 317.533 107.243C317.137 107.243 316.816 107.564 316.816 107.959C316.816 108.355 317.137 108.676 317.533 108.676Z" fill="white"/>
<path d="M328.517 108.676C328.913 108.676 329.233 108.355 329.233 107.959C329.233 107.564 328.913 107.243 328.517 107.243C328.121 107.243 327.801 107.564 327.801 107.959C327.801 108.355 328.121 108.676 328.517 108.676Z" fill="white"/>
<path d="M339.499 108.676C339.895 108.676 340.216 108.355 340.216 107.959C340.216 107.564 339.895 107.243 339.499 107.243C339.104 107.243 338.783 107.564 338.783 107.959C338.783 108.355 339.104 108.676 339.499 108.676Z" fill="white"/>
<path d="M290.79 132.317C290.79 132.712 290.469 133.033 290.074 133.033C289.678 133.033 289.357 132.712 289.357 132.317C289.357 131.921 289.678 131.601 290.074 131.601C290.469 131.601 290.79 131.921 290.79 132.317Z" fill="white"/>
<path d="M301.056 133.033C301.452 133.033 301.772 132.712 301.772 132.317C301.772 131.921 301.452 131.601 301.056 131.601C300.661 131.601 300.34 131.921 300.34 132.317C300.34 132.712 300.661 133.033 301.056 133.033Z" fill="white"/>
<path d="M312.042 133.033C312.438 133.033 312.759 132.712 312.759 132.317C312.759 131.921 312.438 131.601 312.042 131.601C311.647 131.601 311.326 131.921 311.326 132.317C311.326 132.712 311.647 133.033 312.042 133.033Z" fill="white"/>
<path d="M323.741 132.317C323.741 132.712 323.42 133.033 323.025 133.033C322.629 133.033 322.309 132.712 322.309 132.317C322.309 131.921 322.629 131.601 323.025 131.601C323.42 131.601 323.741 131.921 323.741 132.317Z" fill="white"/>
<path d="M334.007 133.033C334.403 133.033 334.723 132.712 334.723 132.317C334.723 131.921 334.403 131.601 334.007 131.601C333.612 131.601 333.291 131.921 333.291 132.317C333.291 132.712 333.612 133.033 334.007 133.033Z" fill="white"/>
<path d="M345.71 132.317C345.71 132.712 345.389 133.033 344.994 133.033C344.598 133.033 344.277 132.712 344.277 132.317C344.277 131.921 344.598 131.601 344.994 131.601C345.389 131.601 345.71 131.921 345.71 132.317Z" fill="white"/>
<path d="M284.581 124.852C284.977 124.852 285.298 124.532 285.298 124.136C285.298 123.741 284.977 123.42 284.581 123.42C284.186 123.42 283.865 123.741 283.865 124.136C283.865 124.532 284.186 124.852 284.581 124.852Z" fill="white"/>
<path d="M295.566 124.852C295.961 124.852 296.282 124.532 296.282 124.136C296.282 123.741 295.961 123.42 295.566 123.42C295.17 123.42 294.85 123.741 294.85 124.136C294.85 124.532 295.17 124.852 295.566 124.852Z" fill="white"/>
<path d="M307.264 124.136C307.264 124.532 306.944 124.852 306.548 124.852C306.153 124.852 305.832 124.532 305.832 124.136C305.832 123.741 306.153 123.42 306.548 123.42C306.944 123.419 307.264 123.739 307.264 124.136Z" fill="white"/>
<path d="M317.533 124.852C317.928 124.852 318.249 124.532 318.249 124.136C318.249 123.741 317.928 123.42 317.533 123.42C317.137 123.42 316.816 123.741 316.816 124.136C316.816 124.532 317.137 124.852 317.533 124.852Z" fill="white"/>
<path d="M328.517 124.852C328.913 124.852 329.233 124.532 329.233 124.136C329.233 123.741 328.913 123.42 328.517 123.42C328.121 123.42 327.801 123.741 327.801 124.136C327.801 124.532 328.121 124.852 328.517 124.852Z" fill="white"/>
<path d="M339.499 124.852C339.895 124.852 340.216 124.532 340.216 124.136C340.216 123.741 339.895 123.42 339.499 123.42C339.104 123.42 338.783 123.741 338.783 124.136C338.783 124.532 339.104 124.852 339.499 124.852Z" fill="white"/>
<path d="M351.11 124.49C350.985 124.712 350.749 124.851 350.485 124.851C350.083 124.851 349.764 124.531 349.764 124.129C349.764 123.74 350.083 123.421 350.485 123.421C350.555 123.421 350.624 123.435 350.68 123.449C350.832 123.796 350.971 124.143 351.11 124.49Z" fill="white"/>
<path d="M290.79 148.495C290.79 148.89 290.469 149.211 290.074 149.211C289.678 149.211 289.357 148.89 289.357 148.495C289.357 148.099 289.678 147.778 290.074 147.778C290.469 147.778 290.79 148.099 290.79 148.495Z" fill="white"/>
<path d="M301.056 149.211C301.452 149.211 301.772 148.89 301.772 148.495C301.772 148.099 301.452 147.778 301.056 147.778C300.661 147.778 300.34 148.099 300.34 148.495C300.34 148.89 300.661 149.211 301.056 149.211Z" fill="white"/>
<path d="M312.042 149.211C312.438 149.211 312.759 148.89 312.759 148.495C312.759 148.099 312.438 147.778 312.042 147.778C311.647 147.778 311.326 148.099 311.326 148.495C311.326 148.89 311.647 149.211 312.042 149.211Z" fill="white"/>
<path d="M323.741 148.495C323.741 148.89 323.42 149.211 323.025 149.211C322.629 149.211 322.309 148.89 322.309 148.495C322.309 148.099 322.629 147.778 323.025 147.778C323.42 147.778 323.741 148.099 323.741 148.495Z" fill="white"/>
<path d="M334.007 149.211C334.403 149.211 334.723 148.89 334.723 148.495C334.723 148.099 334.403 147.778 334.007 147.778C333.612 147.778 333.291 148.099 333.291 148.495C333.291 148.89 333.612 149.211 334.007 149.211Z" fill="white"/>
<path d="M345.71 148.495C345.71 148.89 345.389 149.211 344.994 149.211C344.598 149.211 344.277 148.89 344.277 148.495C344.277 148.099 344.598 147.778 344.994 147.778C345.389 147.778 345.71 148.099 345.71 148.495Z" fill="white"/>
<path d="M356.692 148.495C356.692 148.89 356.372 149.211 355.976 149.211C355.58 149.211 355.26 148.89 355.26 148.495C355.26 148.099 355.58 147.778 355.976 147.778C356.372 147.778 356.692 148.099 356.692 148.495Z" fill="white"/>
<path d="M284.581 141.029C284.977 141.029 285.298 140.708 285.298 140.313C285.298 139.917 284.977 139.597 284.581 139.597C284.186 139.597 283.865 139.917 283.865 140.313C283.865 140.708 284.186 141.029 284.581 141.029Z" fill="white"/>
<path d="M295.566 141.029C295.961 141.029 296.282 140.708 296.282 140.313C296.282 139.917 295.961 139.597 295.566 139.597C295.17 139.597 294.85 139.917 294.85 140.313C294.85 140.708 295.17 141.029 295.566 141.029Z" fill="white"/>
<path d="M307.264 140.313C307.264 140.708 306.944 141.029 306.548 141.029C306.153 141.029 305.832 140.708 305.832 140.313C305.832 139.917 306.153 139.597 306.548 139.597C306.944 139.595 307.264 139.917 307.264 140.313Z" fill="white"/>
<path d="M317.533 141.029C317.928 141.029 318.249 140.708 318.249 140.313C318.249 139.917 317.928 139.597 317.533 139.597C317.137 139.597 316.816 139.917 316.816 140.313C316.816 140.708 317.137 141.029 317.533 141.029Z" fill="white"/>
<path d="M328.517 141.029C328.913 141.029 329.233 140.708 329.233 140.313C329.233 139.917 328.913 139.597 328.517 139.597C328.121 139.597 327.801 139.917 327.801 140.313C327.801 140.708 328.121 141.029 328.517 141.029Z" fill="white"/>
<path d="M339.499 141.029C339.895 141.029 340.216 140.708 340.216 140.313C340.216 139.917 339.895 139.597 339.499 139.597C339.104 139.597 338.783 139.917 338.783 140.313C338.783 140.708 339.104 141.029 339.499 141.029Z" fill="white"/>
<path d="M351.202 140.313C351.202 140.708 350.881 141.029 350.486 141.029C350.09 141.029 349.77 140.708 349.77 140.313C349.77 139.917 350.09 139.597 350.486 139.597C350.881 139.595 351.202 139.917 351.202 140.313Z" fill="white"/>
<path d="M290.79 164.671C290.79 165.067 290.469 165.388 290.074 165.388C289.678 165.388 289.357 165.067 289.357 164.671C289.357 164.276 289.678 163.955 290.074 163.955C290.469 163.955 290.79 164.276 290.79 164.671Z" fill="white"/>
<path d="M301.056 165.388C301.452 165.388 301.772 165.067 301.772 164.671C301.772 164.276 301.452 163.955 301.056 163.955C300.661 163.955 300.34 164.276 300.34 164.671C300.34 165.067 300.661 165.388 301.056 165.388Z" fill="white"/>
<path d="M312.042 165.388C312.438 165.388 312.759 165.067 312.759 164.671C312.759 164.276 312.438 163.955 312.042 163.955C311.647 163.955 311.326 164.276 311.326 164.671C311.326 165.067 311.647 165.388 312.042 165.388Z" fill="white"/>
<path d="M323.741 164.671C323.741 165.067 323.42 165.388 323.025 165.388C322.629 165.388 322.309 165.067 322.309 164.671C322.309 164.276 322.629 163.955 323.025 163.955C323.42 163.955 323.741 164.276 323.741 164.671Z" fill="white"/>
<path d="M334.007 165.388C334.403 165.388 334.723 165.067 334.723 164.671C334.723 164.276 334.403 163.955 334.007 163.955C333.612 163.955 333.291 164.276 333.291 164.671C333.291 165.067 333.612 165.388 334.007 165.388Z" fill="white"/>
<path d="M345.71 164.671C345.71 165.067 345.389 165.388 344.994 165.388C344.598 165.388 344.277 165.067 344.277 164.671C344.277 164.276 344.598 163.955 344.994 163.955C345.389 163.955 345.71 164.276 345.71 164.671Z" fill="white"/>
<path d="M356.662 164.492C356.231 164.673 355.801 164.853 355.357 165.02C355.288 164.909 355.26 164.798 355.26 164.673C355.26 164.27 355.579 163.951 355.982 163.951C356.315 163.951 356.592 164.187 356.662 164.492Z" fill="white"/>
<path d="M284.581 157.207C284.977 157.207 285.298 156.886 285.298 156.491C285.298 156.095 284.977 155.774 284.581 155.774C284.186 155.774 283.865 156.095 283.865 156.491C283.865 156.886 284.186 157.207 284.581 157.207Z" fill="white"/>
<path d="M295.566 157.207C295.961 157.207 296.282 156.886 296.282 156.491C296.282 156.095 295.961 155.774 295.566 155.774C295.17 155.774 294.85 156.095 294.85 156.491C294.85 156.886 295.17 157.207 295.566 157.207Z" fill="white"/>
<path d="M307.264 156.491C307.264 156.886 306.944 157.207 306.548 157.207C306.153 157.207 305.832 156.886 305.832 156.491C305.832 156.095 306.153 155.774 306.548 155.774C306.944 155.774 307.264 156.095 307.264 156.491Z" fill="white"/>
<path d="M317.533 157.207C317.928 157.207 318.249 156.886 318.249 156.491C318.249 156.095 317.928 155.774 317.533 155.774C317.137 155.774 316.816 156.095 316.816 156.491C316.816 156.886 317.137 157.207 317.533 157.207Z" fill="white"/>
<path d="M328.517 157.207C328.913 157.207 329.233 156.886 329.233 156.491C329.233 156.095 328.913 155.774 328.517 155.774C328.121 155.774 327.801 156.095 327.801 156.491C327.801 156.886 328.121 157.207 328.517 157.207Z" fill="white"/>
<path d="M339.499 157.207C339.895 157.207 340.216 156.886 340.216 156.491C340.216 156.095 339.895 155.774 339.499 155.774C339.104 155.774 338.783 156.095 338.783 156.491C338.783 156.886 339.104 157.207 339.499 157.207Z" fill="white"/>
<path d="M351.202 156.491C351.202 156.886 350.881 157.207 350.486 157.207C350.09 157.207 349.77 156.886 349.77 156.491C349.77 156.095 350.09 155.774 350.486 155.774C350.881 155.774 351.202 156.095 351.202 156.491Z" fill="white"/>
<path d="M362.184 156.491C362.184 156.886 361.864 157.207 361.468 157.207C361.073 157.207 360.752 156.886 360.752 156.491C360.752 156.095 361.073 155.774 361.468 155.774C361.864 155.774 362.184 156.095 362.184 156.491Z" fill="white"/>
<path d="M364.642 160.467C354.648 166.394 342.933 169.545 331.524 170.919C326.222 143.825 317.2 90.2902 315.076 77.6455C317.713 78.3673 320.337 79.6581 322.877 81.3931C328.221 85.0158 333.245 90.5955 337.437 96.9942C349.929 116.107 364.642 160.467 364.642 160.467Z" fill="#263238"/>
<path d="M332.493 88.3842C350.724 109.269 375.912 144.983 366.331 153.927C350.577 168.631 302.511 179.602 291.453 181.656C286.679 182.543 275.035 151.727 277.986 147.456C280.936 143.185 332.104 137.024 332.264 133.85C332.354 132.051 325.225 117.002 318.986 98.2473C311.791 76.6209 327.277 82.4088 332.493 88.3842Z" fill="#FDFDFD"/>
<path d="M286.232 144.326C286.232 144.326 271.488 145.158 261.872 146.154C256.508 146.711 247.394 148.485 243.641 150.696C238.025 154.003 216.651 171.424 220.764 176.697C224.487 181.47 240.95 164.172 240.95 164.172C240.95 164.172 222.795 180.159 228.334 185.082C233.872 190.005 249.875 167.987 249.875 167.987C249.875 167.987 231.589 184.831 238.104 189.005C243.028 192.158 258.644 173.033 258.644 173.033C258.644 173.033 243.028 187.619 247.951 191.081C253.392 194.906 268.914 178.157 268.914 178.157C282.91 184.85 292.313 182.312 298.785 179.709C300.351 179.082 286.232 144.326 286.232 144.326Z" fill="#FDFDFD"/>
<path d="M246.874 158.242C244.674 160.042 242.434 161.85 240.402 163.841C238.37 165.831 236.404 167.894 234.565 170.065C230.055 175.388 228.065 179.427 228.215 179.191C231.767 173.608 238.933 166.371 240.968 164.379C242.997 162.393 244.926 160.306 246.954 158.317C247.004 158.267 246.927 158.2 246.874 158.242Z" fill="#263238"/>
<path d="M254.194 165.452C251.483 167.873 248.704 170.177 246.101 172.718C243.509 175.247 241.272 177.873 238.861 180.574C238.675 180.782 238.848 180.814 239.043 180.612C241.559 178.009 244.087 175.798 246.634 173.225C249.172 170.661 251.629 167.98 254.258 165.51C254.297 165.473 254.234 165.416 254.194 165.452Z" fill="#263238"/>
<path d="M261.587 170.511C257.255 173.998 253.572 178.281 250.061 182.568C249.886 182.782 250.113 182.797 250.305 182.589C254.061 178.509 256.978 175.281 261.709 170.661C261.782 170.589 261.678 170.437 261.587 170.511Z" fill="#263238"/>
<path d="M276.249 144.857C269.521 145.24 262.618 145.639 255.946 146.585C250.063 147.418 244.683 149.141 239.832 152.649C235.232 155.976 231.211 160.194 227.292 164.278C225.216 166.441 223.052 168.8 221.5 171.379C220.561 172.941 219.2 175.419 220.687 176.992C222.494 178.906 228.568 176.538 234.727 170.203C234.949 169.975 234.792 169.852 234.563 170.063C225.86 178.088 222.149 177.464 221.11 176.252C220.438 175.468 220.945 174.006 221.431 172.88C222.136 171.251 223.312 169.725 224.405 168.349C228.188 163.593 232.839 159.157 237.512 155.287C242.887 150.836 248.725 148.143 255.64 147.127C262.471 146.124 269.47 146.211 276.287 145.111C276.435 145.087 276.393 144.848 276.249 144.857Z" fill="#263238"/>
<path d="M354.189 113.539L322.89 115.385C322.89 115.385 319.489 106.308 317.102 93.3855C317.018 92.9414 316.949 92.4972 316.88 92.0808C316.852 91.942 316.838 91.8171 316.824 91.6922V91.6366C315.061 80.1162 318.656 76.9238 329.802 85.8625C335.534 90.4568 340.434 95.5785 344.307 100.159C344.445 100.326 344.584 100.478 344.709 100.631C346.819 103.129 348.595 105.447 350.025 107.404C350.317 107.807 350.608 108.195 350.858 108.57C353.023 111.596 354.189 113.539 354.189 113.539Z" fill="#FDC886"/>
<path d="M323.739 83.7865C323.739 84.1821 323.418 84.5027 323.023 84.5027C322.627 84.5027 322.307 84.1821 322.307 83.7865C322.307 83.3909 322.627 83.0703 323.023 83.0703C323.418 83.0703 323.739 83.3909 323.739 83.7865Z" fill="white"/>
<path d="M323.739 99.9633C323.739 100.359 323.418 100.679 323.023 100.679C322.627 100.679 322.307 100.359 322.307 99.9633C322.307 99.5677 322.627 99.2471 323.023 99.2471C323.418 99.2471 323.739 99.5677 323.739 99.9633Z" fill="white"/>
<path d="M334.007 100.679C334.403 100.679 334.723 100.359 334.723 99.9633C334.723 99.5677 334.403 99.2471 334.007 99.2471C333.612 99.2471 333.291 99.5677 333.291 99.9633C333.291 100.359 333.612 100.679 334.007 100.679Z" fill="white"/>
<path d="M317.531 92.4988C317.926 92.4988 318.247 92.1782 318.247 91.7826C318.247 91.3871 317.926 91.0664 317.531 91.0664C317.135 91.0664 316.814 91.3871 316.814 91.7826C316.814 92.1782 317.135 92.4988 317.531 92.4988Z" fill="white"/>
<path d="M328.515 92.4988C328.911 92.4988 329.231 92.1782 329.231 91.7826C329.231 91.3871 328.911 91.0664 328.515 91.0664C328.12 91.0664 327.799 91.3871 327.799 91.7826C327.799 92.1782 328.12 92.4988 328.515 92.4988Z" fill="white"/>
<path d="M328.515 108.677C328.911 108.677 329.231 108.356 329.231 107.96C329.231 107.565 328.911 107.244 328.515 107.244C328.12 107.244 327.799 107.565 327.799 107.96C327.799 108.356 328.12 108.677 328.515 108.677Z" fill="white"/>
<path d="M339.499 108.677C339.895 108.677 340.216 108.356 340.216 107.96C340.216 107.565 339.895 107.244 339.499 107.244C339.104 107.244 338.783 107.565 338.783 107.96C338.783 108.356 339.104 108.677 339.499 108.677Z" fill="white"/>
<path d="M350.858 108.57C350.747 108.64 350.622 108.681 350.484 108.681C350.081 108.681 349.762 108.348 349.762 107.96C349.762 107.737 349.859 107.529 350.025 107.404C350.317 107.807 350.608 108.195 350.858 108.57Z" fill="white"/>
<path d="M304.586 27.7871C302.843 27.1375 301.188 17.4021 307.588 12.7648C313.892 8.1969 322.187 13.4255 318.748 21.4023C316.575 26.4435 308.274 29.1626 304.586 27.7871Z" fill="#263238"/>
<path d="M322.876 81.393C322.848 81.4347 322.807 81.4624 322.779 81.5041C317.671 86.9728 307.387 96.8942 300.501 96.0364C295.199 95.3757 291.192 90.9799 290.498 89.4504C292.552 86.5703 295.745 83.6541 297.133 82.1967C305.129 73.8257 314.451 75.6606 322.876 81.393Z" fill="#FDFDFD"/>
<path d="M312.989 79.88C312.878 81.3679 307.484 91.7599 300.874 92.4789C298.721 92.7093 296.938 81.0126 296.938 81.0126L296.609 80.1798L292.012 68.5109L304.788 57.1737L306.652 55.6455C306.652 55.6455 307.7 58.9212 308.962 63.0116C309.022 63.2018 309.081 63.3905 309.142 63.5946C309.22 63.8236 309.296 64.0401 309.358 64.258C309.555 64.866 309.752 65.4892 309.936 66.1138C310.078 66.5885 310.22 67.0493 310.35 67.5532C310.494 68.0556 310.625 68.5456 310.769 69.0466C312.089 74.0268 313.027 79.2498 312.989 79.88Z" fill="#FDFDFD"/>
<path d="M308.961 63.014C307.004 73.1797 299.93 78.307 296.607 80.1808L292.01 68.5119L304.786 57.1747L306.65 55.6465C306.65 55.6465 307.698 58.9222 308.961 63.014Z" fill="#263238"/>
<path d="M272.521 51.7646C273.938 73.7297 287.255 75.362 291.991 75.0497C296.291 74.768 310.894 73.2606 311.754 51.2664C312.615 29.2721 301.954 22.9872 292.087 23.1122C282.218 23.2385 271.104 29.7982 272.521 51.7646Z" fill="#FDFDFD"/>
<path d="M276.36 48.16C276.864 48.0309 277.306 47.8283 277.792 47.6493C278.339 47.448 278.796 47.3425 279.154 46.8498C279.345 46.586 279.263 46.1127 279.025 45.9031C278.468 45.4132 277.735 45.4937 277.068 45.7102C276.342 45.9448 275.842 46.3112 275.428 46.9497C275.026 47.5688 275.695 48.3294 276.36 48.16Z" fill="#263238"/>
<path d="M291.517 46.5837C290.996 46.5934 290.516 46.5157 290.001 46.4727C289.419 46.4241 288.952 46.4435 288.477 46.0632C288.222 45.8592 288.176 45.3817 288.351 45.1152C288.757 44.4948 289.485 44.3782 290.187 44.4087C290.949 44.442 291.528 44.6627 292.097 45.1693C292.645 45.6607 292.202 46.5712 291.517 46.5837Z" fill="#263238"/>
<path d="M289.355 52.4799C289.36 52.4216 289.48 52.5368 289.484 52.5992C289.603 54.0941 289.99 55.7861 291.392 56.1303C291.435 56.1414 291.44 56.2164 291.39 56.215C289.72 56.1664 289.228 53.9151 289.355 52.4799Z" fill="#263238"/>
<path d="M290.512 50.7769C292.887 50.3271 293.61 55.1116 291.41 55.528C289.244 55.9361 288.52 51.153 290.512 50.7769Z" fill="#263238"/>
<path d="M291.49 50.888C291.948 51.0948 292.43 51.5112 292.942 51.4848C293.533 51.4543 293.898 50.8866 294.206 50.3481C294.238 50.2926 294.285 50.3272 294.297 50.3911C294.449 51.3058 294.238 52.2996 293.276 52.5841C292.399 52.8451 291.633 52.1303 291.265 51.2433C291.196 51.0782 291.305 50.8033 291.49 50.888Z" fill="#263238"/>
<path d="M279.968 53.2083C279.948 53.1542 279.864 53.2971 279.875 53.3568C280.157 54.8295 280.233 56.5631 278.973 57.2682C278.934 57.2904 278.95 57.364 278.998 57.3487C280.596 56.8587 280.472 54.5574 279.968 53.2083Z" fill="#263238"/>
<path d="M278.401 51.8734C275.992 52.0719 276.565 56.8757 278.797 56.6925C280.994 56.5107 280.421 51.7068 278.401 51.8734Z" fill="#263238"/>
<path d="M277.437 52.3089C277.088 52.6087 276.768 53.1167 276.319 53.2C275.797 53.2972 275.347 52.8238 274.951 52.3658C274.91 52.3186 274.878 52.363 274.883 52.4269C274.968 53.3485 275.386 54.2688 276.288 54.3395C277.111 54.4048 277.609 53.5456 277.719 52.6059C277.739 52.4297 277.579 52.1881 277.437 52.3089Z" fill="#263238"/>
<path d="M290.344 63.9582C290.061 64.3718 289.803 64.9159 289.278 65.0658C288.774 65.2102 288.13 65.0977 287.625 65.0089C287.575 65.0006 287.538 65.0589 287.577 65.0964C288.069 65.5849 288.942 65.7793 289.6 65.5253C290.243 65.2768 290.458 64.6369 290.498 63.9957C290.504 63.9069 290.386 63.8985 290.344 63.9582Z" fill="#263238"/>
<path d="M284.206 58.2593C283.627 58.2899 282.556 58.8354 281.906 59.1282C281.764 54.4215 282.379 49.7301 282.168 45.0456C282.157 44.879 281.914 44.8624 281.887 45.0164C280.894 49.8869 280.939 55.3071 280.958 60.172C280.955 60.6897 284.255 58.4731 284.255 58.4731C284.245 58.3398 284.23 58.2579 284.206 58.2593Z" fill="#263238"/>
<path d="M310.356 53.1473C304.901 53.7164 300.987 37.2547 300.529 35.2282C300.751 36.5191 301.903 43.3619 301.418 43.7089C301.293 43.7922 300.668 43.7506 299.669 43.6256H299.655C299.544 42.8484 299.363 42.0156 299.114 41.1966C299.016 40.8219 299.086 42.0433 299.086 43.5562C298.767 43.5146 298.42 43.4591 298.045 43.4174C297.878 41.9323 297.531 40.114 296.796 38.268C296.546 37.6434 296.782 40.5859 296.518 43.2231C292.632 42.7373 287.038 42.1683 281.958 42.7096C280.598 42.8484 279.432 43.0288 278.405 43.2231C278.113 41.1966 278.044 39.0036 277.96 39.4894C277.697 40.8774 277.627 42.2376 277.641 43.3758C277.086 43.4868 276.572 43.5979 276.114 43.7089C275.573 40.8635 276.295 36.1027 275.934 36.8661C274.56 39.8225 274.227 42.7651 274.157 44.3058C272.256 44.9581 271.77 45.4162 271.645 44.9165C271.423 44.0143 271.419 35.8445 276.836 29.0933C282.725 21.7563 296.032 18.253 305.04 27.0252C305.04 27.0252 311.897 30.2453 313.812 36.7134C315.728 43.1676 313.507 52.8142 310.356 53.1473Z" fill="#263238"/>
<path d="M308.372 53.1792C308.372 53.1792 312.088 45.6645 315.427 46.8887C318.767 48.113 316.693 58.5021 313.28 60.3995C309.867 62.2969 308.049 59.1712 308.049 59.1712L308.372 53.1792Z" fill="#FDFDFD"/>
<path d="M314.76 49.8522C314.817 49.8383 314.841 49.9174 314.794 49.9466C312.413 51.361 311.435 53.9163 310.871 56.498C311.483 55.4445 312.433 54.7741 313.826 55.4805C313.9 55.518 313.853 55.6305 313.778 55.6263C312.705 55.5611 311.982 55.8567 311.407 56.795C310.999 57.4598 310.773 58.2565 310.52 58.9908C310.435 59.2351 310.008 59.1768 310.055 58.902C310.059 58.8812 310.063 58.8603 310.068 58.8395C309.511 55.6152 311.336 50.7072 314.76 49.8522Z" fill="#263238"/>
<path d="M284.143 62.0282C284.143 62.0282 285.214 63.4037 286.647 63.8756C287.174 64.0505 287.74 64.1115 288.327 63.9408C289.534 63.5924 289.538 62.4779 289.292 61.5313C289.094 60.7512 288.713 60.085 288.713 60.085C288.713 60.085 286.981 61.7853 284.143 62.0282Z" fill="#263238"/>
<path d="M286.646 63.8746C287.174 64.0495 287.74 64.1106 288.327 63.9398C289.534 63.5915 289.538 62.4769 289.292 61.5303C287.994 61.6941 286.727 62.6074 286.646 63.8746Z" fill="#FF9CBD"/>
<path d="M265.579 82.4517C267.424 85.261 268.461 88.4201 268.461 91.7611C268.461 103.555 255.509 113.117 239.544 113.117C223.578 113.117 210.641 103.555 210.641 91.7611C210.641 79.9672 223.58 70.4053 239.544 70.4053C247.285 70.4053 254.304 72.6483 259.488 76.314L269.449 73.7809L265.579 82.4517Z" fill="white"/>
<path d="M265.58 82.4519C267.352 85.0225 268.486 88.0858 268.617 91.2504C268.725 94.4067 267.967 97.6144 266.36 100.363C264.792 103.134 262.533 105.468 259.986 107.35C257.435 109.242 254.561 110.673 251.558 111.685C248.556 112.703 245.425 113.32 242.263 113.586C239.097 113.832 235.909 113.633 232.776 113.123C226.527 112.094 220.424 109.392 215.824 104.879C213.549 102.62 211.706 99.8477 210.729 96.7358C209.759 93.6322 209.698 90.2219 210.644 87.1031C211.567 83.9745 213.368 81.1763 215.611 78.8875C217.859 76.589 220.541 74.7679 223.404 73.373C229.156 70.5859 235.634 69.5851 241.938 69.9849C248.238 70.4138 254.52 72.3514 259.674 76.0546L259.412 76.006L269.409 73.6201L269.75 73.5395L269.604 73.8518L265.58 82.4519ZM265.58 82.4519L269.298 73.713L269.493 73.9435L259.57 76.6223L259.433 76.6598L259.306 76.5737C254.187 73.0857 248.033 71.2771 241.88 70.9787C238.796 70.8024 235.698 71.0703 232.677 71.6297C229.659 72.1974 226.685 73.0982 223.941 74.4737C221.196 75.8311 218.645 77.5925 216.531 79.7786C214.421 81.9578 212.764 84.5839 211.93 87.4737C211.069 90.3538 211.161 93.474 212.052 96.3277C212.933 99.1967 214.629 101.794 216.765 103.942C221.085 108.234 226.942 110.899 232.986 111.925C239.04 112.981 245.373 112.638 251.249 110.762C257.097 108.922 262.586 105.329 265.837 100.059C267.472 97.4423 268.299 94.3568 268.285 91.2615C268.239 88.1621 267.248 85.0946 265.58 82.4519Z" fill="#263238"/>
<path d="M229.149 91.7627C229.149 90.1068 227.806 88.7646 226.15 88.7646C224.495 88.7646 223.152 90.1068 223.152 91.7627C223.152 93.4186 224.495 94.7608 226.15 94.7608C227.806 94.7608 229.149 93.4186 229.149 91.7627Z" fill="#263238"/>
<path d="M242.547 91.7627C242.547 90.1068 241.205 88.7646 239.549 88.7646C237.893 88.7646 236.551 90.1068 236.551 91.7627C236.551 93.4186 237.893 94.7608 239.549 94.7608C241.205 94.7608 242.547 93.4186 242.547 91.7627Z" fill="#263238"/>
<path d="M255.945 91.7627C255.945 90.1068 254.603 88.7646 252.947 88.7646C251.291 88.7646 249.949 90.1068 249.949 91.7627C249.949 93.4186 251.291 94.7608 252.947 94.7608C254.603 94.7608 255.945 93.4186 255.945 91.7627Z" fill="#263238"/>
<path d="M269.452 186.771H160.521V191.656H269.452V186.771Z" fill="#455A64"/>
<path d="M215.347 186.771H160.521V191.656H215.347V186.771Z" fill="#263238"/>
<path d="M209.448 191.652H103.288L89.4082 119.551H195.568L209.448 191.652Z" fill="#455A64"/>
<path d="M155.89 155.601C156.202 159.17 153.562 162.064 149.994 162.064C146.425 162.064 143.279 159.171 142.966 155.601C142.654 152.033 145.294 149.139 148.863 149.139C152.431 149.139 155.578 152.033 155.89 155.601Z" fill="#A6A6A6"/>
<path d="M344.225 180.269C342.656 183.67 339.283 186.529 334.883 186.529C334.259 186.529 333.62 186.474 332.954 186.349C332.052 186.182 331.122 185.904 330.15 185.488L331.802 181.657C332.33 181.893 332.829 182.06 333.301 182.171C337.965 183.309 340.047 179.409 340.435 178.534C342.254 174.592 341.643 166.486 338.562 163.905C338.353 163.71 337.562 163.488 334.772 164.654C334.259 164.876 333.676 165.126 333.024 165.445C332.302 165.806 331.872 166.014 331.441 166.112L330.983 164.085L330.4 162.086C330.581 162.017 330.858 161.878 331.219 161.698C332.26 161.198 333.662 160.518 335.161 160.074C337.257 159.449 339.547 159.283 341.241 160.712C346.251 164.932 346.501 175.328 344.225 180.269Z" fill="#FDC886"/>
<path d="M331.802 181.657C332.33 181.893 332.829 182.06 333.301 182.171L332.954 186.349C332.052 186.182 331.122 185.904 330.15 185.488L331.802 181.657Z" fill="#263238"/>
<path d="M335.161 160.074L334.773 164.655C334.259 164.877 333.676 165.127 333.024 165.446C332.302 165.807 331.872 166.015 331.441 166.112L330.983 164.086L330.4 162.087C330.581 162.017 330.858 161.879 331.219 161.698C332.26 161.198 333.662 160.518 335.161 160.074Z" fill="#263238"/>
<path d="M332.927 151.265L332.788 154.971L332.704 157.233L332.663 158.593L331.455 191.17H303.348L302.141 158.593L302.099 157.233L302.016 154.971L301.877 151.265H332.927Z" fill="#FDC886"/>
<path d="M332.927 151.265L332.788 154.971H302.016L301.877 151.265H332.927Z" fill="#455A64"/>
<path d="M332.705 157.233L332.663 158.594H302.141L302.1 157.233H332.705Z" fill="#455A64"/>
<path d="M139.215 200.4L138.868 227.758L135.051 527.816H130.762L126.945 227.758L126.598 200.4H139.215Z" fill="#455A64"/>
<path d="M126.598 200.4H139.215L138.868 227.758H126.945L126.598 200.4Z" fill="#263238"/>
<path d="M443.451 200.4L443.104 227.758L439.287 527.816H434.998L431.181 227.758L430.834 200.4H443.451Z" fill="#455A64"/>
<path d="M443.451 200.4L443.104 227.758H431.181L430.834 200.4H443.451Z" fill="#263238"/>
<path d="M95.4509 200.4L95.1039 227.758L91.2869 527.816H86.998L83.181 227.758L82.834 200.4H95.4509Z" fill="#37474F"/>
<path d="M82.834 200.4H95.4509L95.1039 227.758H83.181L82.834 200.4Z" fill="#263238"/>
<path d="M399.674 200.4L399.327 227.758L395.51 527.816H391.221L387.404 227.758L387.057 200.4H399.674Z" fill="#37474F"/>
<path d="M387.057 200.4H399.674L399.327 227.758H387.404L387.057 200.4Z" fill="#263238"/>
<path d="M390.221 432.884H89.1426V438.436H390.221V432.884Z" fill="#37474F"/>
<path d="M450.95 191.177H411.941V207.015H450.95V191.177Z" fill="#455A64"/>
<path d="M411.942 191.177H69.0625V207.015H411.942V191.177Z" fill="#37474F"/>
<path d="M139.273 355.888C116.931 388.057 93.7416 425.308 88.9807 464.974C88.9266 465.574 89.8898 465.742 90.0106 465.143C92.3966 454.232 95.5071 443.614 99.3796 433.223C114.546 428.574 129.452 424.683 137.04 409.276C144.777 393.441 143.147 373.133 141.099 356.185C140.965 355.279 139.73 355.269 139.273 355.888Z" fill="#FDC886"/>
<path d="M98.878 432.485C109.163 408.959 122.413 385.316 139.328 365.911C139.442 365.78 139.623 365.966 139.517 366.097C128.449 379.91 120.073 394.93 111.895 410.206C119.541 402.332 127.933 395.267 135.171 386.922C135.313 386.76 135.541 386.993 135.407 387.155C128.223 395.9 120.377 405.405 110.987 411.906C108.484 416.592 105.966 421.296 103.413 425.997C104.044 425.639 104.696 425.317 105.345 424.991C105.458 424.934 105.561 425.103 105.446 425.163C104.728 425.532 104.019 425.921 103.279 426.241C102.069 428.466 100.871 430.693 99.6261 432.914C99.3471 433.409 98.66 432.982 98.878 432.485Z" fill="#263238"/>
<path d="M106.595 424.249C112.803 420.63 118.79 416.745 124.368 412.201C124.519 412.077 124.741 412.287 124.589 412.419C119.112 417.123 113.265 421.341 106.854 424.686C106.566 424.836 106.31 424.414 106.595 424.249Z" fill="#263238"/>
<path d="M86.1508 468.688C86.2119 469.165 87.0253 469.132 87.0003 468.624C86.7449 455.614 86.2577 442.552 86.0745 429.48C89.2114 422.659 96.2555 418.731 101.073 413.198C104.547 409.207 107.487 404.73 109.976 400.014C115.807 388.831 118.779 376.362 119.699 363.823C120.669 349.871 114.061 304.116 108.242 305.88C105.225 306.794 96.0417 329.819 93.6488 337.411C89.7305 349.901 87.0947 362.803 85.4957 375.792C81.626 406.537 82.9321 437.953 86.1508 468.688Z" fill="#FDC886"/>
<path d="M84.4323 412.582C84.4517 412.565 84.4697 412.547 84.4892 412.529C84.7251 396.052 87.9522 379.325 90.96 363.263C94.201 345.959 98.1027 329.642 106.507 314.049C106.664 313.759 107.093 313.999 106.953 314.293C101.274 326.333 97.3337 339.055 94.4134 352.086C94.9783 351.141 95.6737 350.241 96.265 349.347C96.4981 348.996 97.0756 349.3 96.8465 349.665C96.0165 350.987 95.2767 352.52 94.1941 353.65C94.158 353.688 94.1191 353.693 94.0802 353.707C91.3903 366.085 89.5679 378.722 88.0591 391.315C88.1951 391.153 88.3242 390.976 88.4616 390.818C88.5546 390.713 88.7198 390.839 88.6573 390.96C88.438 391.382 88.1896 391.802 87.9481 392.224C87.1902 398.617 86.499 404.995 85.8036 411.317C96.8563 401.302 106.204 389.604 111.257 375.377C111.28 375.311 111.387 375.335 111.365 375.403C106.439 390.152 98.3831 403.368 85.6606 412.597C85.4733 414.302 85.2845 416.005 85.0916 417.699C85.0513 418.052 84.4906 417.976 84.4822 417.636C84.4434 416.137 84.4725 414.631 84.4878 413.127C84.3254 412.991 84.2407 412.751 84.4323 412.582Z" fill="#263238"/>
<path d="M89.0799 388.583C97.3662 375.407 105.093 362.618 111.017 348.146C111.082 347.985 111.36 348.091 111.303 348.257C106.374 362.608 99.3108 377.21 89.524 388.905C89.3241 389.144 88.9133 388.849 89.0799 388.583Z" fill="#263238"/>
<path d="M99.3477 345.289C102.752 338.837 106.356 332.55 109.545 325.978C109.634 325.794 109.888 325.946 109.817 326.126C107.175 332.825 103.984 339.641 99.9098 345.596C99.6822 345.93 99.1506 345.662 99.3477 345.289Z" fill="#263238"/>
<path d="M98.0269 348.091C98.0977 348.089 98.1018 348.199 98.0296 348.202C97.9589 348.203 97.9547 348.092 98.0269 348.091Z" fill="#263238"/>
<path d="M79.2913 429.478C79.319 438.102 78.6375 446.749 76.9941 455.191C77.1551 456.112 77.3148 457.034 77.4785 457.983C79.9242 448.569 81.2636 429.982 81.2497 428.404C81.2497 428.404 81.2497 428.404 81.247 428.376C81.3649 415.465 79.791 402.458 77.2551 389.759C72.5359 365.973 63.0725 343.287 45.8821 325.855C45.338 325.318 44.2915 325.635 44.0513 326.289C37.8206 343.589 40.7576 363.93 46.9814 380.827C50.3654 389.928 55.0721 398.627 60.9516 406.366C66.9034 414.239 74.3916 420.831 79.2913 429.478Z" fill="#FDC886"/>
<path d="M48.0856 333.803C64.6264 358.985 76.4994 389.067 78.7202 419.317C78.759 419.853 77.8596 420.021 77.7694 419.474C77.3169 416.763 76.8228 414.079 76.3092 411.406C76.2995 411.399 76.2898 411.404 76.2815 411.396C69.5649 405.325 62.6638 398.915 57.7558 391.227C57.6698 391.092 57.8641 390.924 57.9765 391.047C63.8505 397.381 69.3498 403.886 75.9372 409.495C74.6117 402.831 73.0807 396.279 71.3055 389.831C70.8683 389.359 70.4422 388.874 70.0133 388.398C69.7301 388.085 70.1729 387.603 70.4685 387.915C70.5976 388.053 70.7295 388.189 70.8599 388.325C68.3629 379.473 65.3787 370.822 61.8407 362.339C57.6795 357.658 53.063 353.641 49.9664 347.948C49.89 347.809 50.0788 347.695 50.1732 347.819C52.6244 351.056 54.9993 354.315 57.7614 357.304C58.8607 358.495 60.0627 359.603 61.2008 360.763C57.3408 351.711 52.8145 342.857 47.486 334.176C47.2459 333.787 47.8358 333.421 48.0856 333.803Z" fill="#263238"/>
<path d="M52.194 365.339C57.5003 372.064 63.509 378.453 68.4613 385.418C68.6043 385.618 68.3128 385.836 68.1393 385.682C61.8739 380.137 56.4857 372.472 51.8567 365.55C51.711 365.332 52.0399 365.142 52.194 365.339Z" fill="#263238"/>
<path d="M69.223 386.99L69.4465 387.201C69.6019 387.348 69.3743 387.588 69.2189 387.442L68.9954 387.231C68.8399 387.083 69.0676 386.841 69.223 386.99Z" fill="#263238"/>
<path d="M21.6996 376.155C23.3513 389.311 30.7466 404.867 39.5035 414.786C43.3843 419.173 48.0327 422.481 53.3279 424.945C59.2672 427.672 65.4951 430.831 71.6204 433.033C74.6615 440.179 77.0475 447.689 78.6659 455.539C78.8421 454.873 79.017 454.179 79.1933 453.513C74.3381 420.227 51.8997 392.305 23.7233 374.78C22.71 374.15 21.5566 375.031 21.6996 376.155Z" fill="#FDC886"/>
<path d="M31.5356 385.747C31.3357 385.58 31.5883 385.222 31.8063 385.373C46.7703 395.801 60.4296 411.244 68.2885 427.766C68.5036 428.217 67.8859 428.636 67.6139 428.186C66.2647 425.972 64.8906 423.82 63.4957 421.707C63.4874 421.706 63.4846 421.713 63.4762 421.711C57.1317 420.706 51.0287 416.438 46.222 412.359C46.0915 412.248 46.2734 412.058 46.4039 412.166C48.912 414.251 51.5936 416.147 54.55 417.543C57.1595 418.776 59.9535 419.518 62.6615 420.487C60.2145 416.843 57.6744 413.354 55.0303 409.976C48.1722 407.859 41.5861 403.875 35.7579 399.864C35.5747 399.738 35.7246 399.439 35.9272 399.553C41.8457 402.886 47.6711 405.801 53.8255 408.464C49.853 403.508 45.5738 398.827 40.9615 394.316C38.7837 393.246 36.5768 392.172 34.4629 391.02C34.2908 390.927 34.3935 390.634 34.5892 390.692C36.2604 391.196 37.9718 392.014 39.568 392.962C37.0002 390.513 34.3574 388.097 31.5356 385.747Z" fill="#263238"/>
<path d="M32.4572 397.262C32.8458 397.494 33.197 397.702 33.5426 397.991C33.6467 398.078 33.5204 398.211 33.4135 398.168C33.0041 398.003 32.6654 397.799 32.2865 397.573C32.0936 397.456 32.2615 397.145 32.4572 397.262Z" fill="#263238"/>
<path d="M112.884 435.569L111.774 460.956L108.72 530.592H59.5156L56.462 460.956L55.3516 435.569H112.884Z" fill="#37474F"/>
<path d="M112.884 435.569L111.774 460.956H56.462L55.3516 435.569H112.884Z" fill="#263238"/>
<path d="M117.119 430.358H51.1152V446.358H117.119V430.358Z" fill="#37474F"/>
<rect x="19" y="5" width="101" height="71.1449" stroke="#455A64" stroke-width="2"/>
<line x1="37.4043" y1="28.376" x2="97.1144" y2="28.376" stroke="#455A64" stroke-width="2"/>
<line x1="52.332" y1="49.2754" x2="97.1146" y2="49.2754" stroke="#455A64" stroke-width="2"/>
</svg>
