<svg width="159" height="299" viewBox="0 0 159 299" fill="none" xmlns="http://www.w3.org/2000/svg">
<path d="M153.921 66.5394C124.779 109.299 94.5328 158.814 88.3232 211.54C88.2526 212.337 89.509 212.561 89.6665 211.765C92.7785 197.262 96.8356 183.148 101.887 169.336C121.669 163.156 141.11 157.984 151.008 137.505C161.099 116.455 158.974 89.4615 156.301 66.9342C156.128 65.7295 154.516 65.7166 153.921 66.5394Z" fill="#FDC886"/>
<path d="M101.233 168.353C114.648 137.083 131.929 105.655 153.993 79.8608C154.141 79.6874 154.376 79.9345 154.239 80.108C139.803 98.4692 128.877 118.434 118.21 138.74C128.184 128.273 139.129 118.882 148.571 107.79C148.755 107.574 149.052 107.884 148.878 108.1C139.508 119.723 129.274 132.358 117.026 141C113.762 147.228 110.478 153.481 107.147 159.73C107.971 159.254 108.822 158.826 109.667 158.392C109.816 158.317 109.95 158.542 109.799 158.621C108.863 159.112 107.938 159.629 106.973 160.055C105.395 163.012 103.832 165.972 102.208 168.924C101.844 169.582 100.948 169.014 101.233 168.353Z" fill="#263238"/>
<path d="M111.299 157.405C119.396 152.595 127.205 147.431 134.481 141.391C134.678 141.227 134.968 141.505 134.768 141.68C127.625 147.933 119.999 153.54 111.637 157.986C111.261 158.186 110.927 157.625 111.299 157.405Z" fill="#263238"/>
<path d="M84.6313 216.477C84.7109 217.111 85.7718 217.067 85.7392 216.392C85.4061 199.099 84.7707 181.736 84.5317 164.36C88.6232 155.294 97.8109 150.072 104.095 142.718C108.626 137.412 112.461 131.462 115.707 125.193C123.312 110.328 127.188 93.7541 128.388 77.0865C129.654 58.5408 121.035 -2.27899 113.445 0.0659828C109.51 1.28183 97.5321 31.8863 94.411 41.9784C89.3002 58.5814 85.8623 75.7305 83.7768 92.9958C78.7294 133.864 80.433 175.623 84.6313 216.477Z" fill="#FDC886"/>
<path d="M82.3896 141.898C82.4149 141.876 82.4384 141.852 82.4638 141.828C82.7716 119.926 86.9807 97.6921 90.9038 76.3419C95.1311 53.3405 100.22 31.6509 111.182 10.9244C111.387 10.5388 111.946 10.858 111.763 11.2491C104.357 27.2525 99.2171 44.1636 95.4081 61.4843C96.1449 60.2278 97.0519 59.0323 97.8231 57.8441C98.1273 57.3774 98.8804 57.7814 98.5817 58.2666C97.4991 60.0231 96.5341 62.0618 95.122 63.5636C95.0749 63.6134 95.0243 63.6208 94.9736 63.6392C91.465 80.0928 89.088 96.8895 87.1201 113.629C87.2975 113.413 87.4659 113.179 87.6451 112.968C87.7664 112.828 87.9819 112.996 87.9004 113.157C87.6144 113.718 87.2903 114.277 86.9753 114.837C85.9868 123.335 85.0852 131.813 84.1782 140.217C98.5944 126.904 110.787 111.354 117.377 92.4431C117.408 92.3564 117.547 92.3877 117.518 92.4781C111.093 112.083 100.586 129.651 83.9918 141.918C83.7474 144.184 83.5012 146.448 83.2495 148.7C83.197 149.169 82.4656 149.067 82.4547 148.615C82.404 146.623 82.4421 144.621 82.462 142.623C82.2502 142.442 82.1397 142.123 82.3896 141.898Z" fill="#263238"/>
<path d="M88.4511 109.998C99.2591 92.4833 109.337 75.4836 117.064 56.2479C117.149 56.0338 117.511 56.174 117.437 56.3954C111.008 75.4707 101.795 94.8799 89.0304 110.426C88.7697 110.743 88.2338 110.352 88.4511 109.998Z" fill="#263238"/>
<path d="M101.843 52.4496C106.284 43.8742 110.984 35.5164 115.144 26.7804C115.26 26.5369 115.591 26.738 115.499 26.9778C112.052 35.8817 107.89 44.9424 102.576 52.8574C102.279 53.302 101.586 52.9459 101.843 52.4496Z" fill="#263238"/>
<path d="M100.121 56.1738C100.213 56.172 100.218 56.3172 100.124 56.3209C100.032 56.3228 100.027 56.1757 100.121 56.1738Z" fill="#263238"/>
<path d="M75.6821 164.358C75.7183 175.821 74.8294 187.315 72.6859 198.536C72.8959 199.761 73.1041 200.986 73.3178 202.248C76.5077 189.734 78.2547 165.028 78.2366 162.93C78.2366 162.93 78.2366 162.93 78.233 162.893C78.3868 145.731 76.3339 128.442 73.0263 111.562C66.871 79.9445 54.5277 49.7901 32.1061 26.619C31.3964 25.905 30.0314 26.3256 29.7182 27.1946C21.5913 50.1905 25.4221 77.2287 33.5399 99.6895C37.9536 111.787 44.0927 123.35 51.7615 133.637C59.5244 144.102 69.2915 152.864 75.6821 164.358Z" fill="#FDC886"/>
<path d="M34.9786 37.1829C56.553 70.6564 72.0391 110.643 74.9357 150.852C74.9864 151.564 73.8133 151.788 73.6956 151.061C73.1054 147.457 72.4609 143.889 71.791 140.336C71.7784 140.327 71.7657 140.334 71.7548 140.323C62.9944 132.253 53.9931 123.733 47.5916 113.514C47.4793 113.335 47.7328 113.111 47.8794 113.274C55.541 121.694 62.7138 130.34 71.3059 137.795C69.5769 128.938 67.5801 120.229 65.2646 111.657C64.6943 111.03 64.1385 110.386 63.5791 109.753C63.2098 109.337 63.7873 108.696 64.1729 109.111C64.3413 109.294 64.5133 109.475 64.6835 109.656C61.4266 97.8902 57.5342 86.3904 52.9196 75.1139C47.492 68.8926 41.4707 63.5533 37.4317 55.9852C37.3321 55.8007 37.5783 55.6493 37.7014 55.8135C40.8986 60.116 43.9962 64.4481 47.5988 68.4222C49.0327 70.0052 50.6004 71.4775 52.085 73.0199C47.0503 60.9869 41.1466 49.2178 34.1965 37.6793C33.8833 37.1627 34.6527 36.6756 34.9786 37.1829Z" fill="#263238"/>
<path d="M40.337 79.1029C47.2581 88.0418 55.0953 96.5343 61.5547 105.792C61.7412 106.058 61.361 106.348 61.1347 106.143C52.9626 98.7723 45.9347 88.5843 39.8971 79.3834C39.707 79.0937 40.136 78.8409 40.337 79.1029Z" fill="#263238"/>
<path d="M62.5484 107.881L62.8398 108.162C63.0426 108.357 62.7457 108.676 62.5429 108.483L62.2515 108.202C62.0487 108.005 62.3456 107.684 62.5484 107.881Z" fill="#263238"/>
<path d="M0.566533 93.4781C2.7209 110.965 12.3667 131.643 23.7884 144.828C28.8502 150.66 34.9132 155.056 41.8199 158.331C49.5665 161.956 57.6897 166.156 65.679 169.082C69.6455 178.582 72.7576 188.563 74.8685 198.998C75.0984 198.113 75.3265 197.19 75.5565 196.304C69.2237 152.06 39.957 114.944 3.20608 91.6497C1.8845 90.8121 0.380063 91.9837 0.566533 93.4781Z" fill="#FDC886"/>
<path d="M13.3956 106.227C13.1349 106.006 13.4644 105.53 13.7486 105.731C33.2664 119.592 51.0825 140.12 61.3329 162.081C61.6135 162.68 60.8079 163.237 60.453 162.64C58.6933 159.697 56.9011 156.835 55.0816 154.027C55.0708 154.025 55.0671 154.035 55.0563 154.033C46.781 152.697 38.8207 147.024 32.5513 141.601C32.3812 141.454 32.6183 141.201 32.7885 141.345C36.0599 144.116 39.5575 146.636 43.4137 148.492C46.8172 150.131 50.4615 151.118 53.9936 152.405C50.8019 147.562 47.4888 142.924 44.0401 138.433C35.0949 135.62 26.5046 130.325 18.9028 124.993C18.6639 124.825 18.8594 124.428 19.1237 124.579C26.8432 129.009 34.4414 132.884 42.4686 136.424C37.2873 129.836 31.7059 123.615 25.69 117.618C22.8495 116.196 19.9709 114.768 17.2137 113.236C16.9892 113.113 17.1232 112.724 17.3785 112.801C19.5582 113.471 21.7904 114.557 23.8723 115.818C20.5231 112.563 17.0761 109.351 13.3956 106.227Z" fill="#263238"/>
<path d="M14.5976 121.534C15.1045 121.842 15.5626 122.119 16.0133 122.503C16.1491 122.619 15.9844 122.796 15.845 122.739C15.3109 122.519 14.8692 122.248 14.3749 121.947C14.1233 121.792 14.3424 121.379 14.5976 121.534Z" fill="#263238"/>
<path d="M119.5 172.455L118.051 206.2L114.068 298.763H49.8901L45.9073 206.2L44.459 172.455H119.5Z" fill="#37474F"/>
<path d="M119.5 172.455L118.051 206.2H45.9073L44.459 172.455H119.5Z" fill="#263238"/>
<path d="M125.023 165.528H38.9336V186.795H125.023V165.528Z" fill="#37474F"/>
</svg>
