<svg width="229" height="50" viewBox="0 0 229 50" fill="none" xmlns="http://www.w3.org/2000/svg">
<path d="M41.0854 22.9875L20.1378 0.729245C19.2227 -0.243082 17.7394 -0.243082 16.8243 0.729245L0.979288 17.3608C0.0641957 18.3331 0.0641957 19.9092 0.979288 20.8816L5.5126 25.6984L24.2659 45.5798L41.0854 28.5949C42.5429 27.0463 42.5429 24.5356 41.0854 22.987V22.9875Z" fill="#263238"/>
<path d="M60.4219 19.1444L32.652 48.7569C31.1931 50.3092 28.8278 50.3092 27.3689 48.7569L11.6504 32.0319C13.1093 33.5842 15.4745 33.5842 16.9334 32.0319L44.7029 2.41947C45.6189 1.44481 47.1037 1.44481 48.0198 2.41947L60.4214 15.6152C61.3374 16.5899 61.3374 18.1698 60.4214 19.1444H60.4219Z" fill="#263238"/>
<path d="M27.2139 12.9325C27.8516 13.6063 28.475 14.2211 29.0485 14.7488C29.7965 15.4367 29.8407 16.6458 29.1395 17.3869L17.8829 29.2837C16.1871 31.0759 13.4383 31.0759 11.7425 29.2837C10.0468 27.4915 10.0468 24.5863 11.7425 22.7941L22.9992 10.8974C23.7004 10.1563 24.8444 10.2036 25.4953 10.9941C25.9946 11.6003 26.5763 12.2591 27.2139 12.933V12.9325Z" fill="#F5F2EA"/>
<path d="M223.103 21.9282H228.639L221.584 30.0327L229.001 40.2718H223.899L218.581 32.7824L216.265 35.315V40.2718H212.213V16.3926H216.265V28.8025L216.772 29.0196L223.103 21.9282Z" fill="#263238"/>
<path d="M208.492 25.7633C207.696 25.5221 206.888 25.4015 206.068 25.4015C204.91 25.4015 203.993 25.7392 203.318 26.4146C202.667 27.0658 202.341 28.0306 202.341 29.309V40.2717H198.361V21.9282H202.088V23.8819H202.775C203.161 23.0859 203.68 22.5071 204.331 22.1452C205.007 21.7834 205.754 21.6025 206.574 21.6025C207.467 21.6025 208.383 21.7955 209.324 22.1814L208.492 25.7633Z" fill="#263238"/>
<path d="M179.918 35.2427C179.918 33.7472 180.388 32.5653 181.329 31.697C182.27 30.8286 183.838 30.1774 186.032 29.7432L191.496 28.6578V28.0789C191.496 27.1382 191.194 26.4025 190.591 25.8719C190.012 25.3412 189.144 25.0759 187.986 25.0759C186.853 25.0759 185.96 25.3412 185.309 25.8719C184.658 26.3784 184.332 27.09 184.332 28.0066H180.28C180.304 26.0046 180.979 24.4367 182.306 23.3031C183.633 22.1453 185.526 21.5664 187.986 21.5664C190.543 21.5664 192.424 22.1694 193.63 23.3754C194.861 24.5815 195.476 26.3061 195.476 28.5493V40.2718H191.568V38.1371H190.989C189.976 39.8256 188.191 40.6698 185.635 40.6698C183.825 40.6698 182.414 40.1874 181.401 39.2225C180.412 38.2336 179.918 36.907 179.918 35.2427ZM183.825 35.1703C183.825 35.7974 184.03 36.2799 184.441 36.6175C184.875 36.9552 185.502 37.1241 186.322 37.1241C186.66 37.1241 186.925 37.112 187.118 37.0879C188.517 36.8949 189.59 36.3643 190.338 35.4959C191.11 34.6276 191.496 33.5542 191.496 32.2759V31.7332L186.394 32.8909C184.682 33.2769 183.825 34.0367 183.825 35.1703Z" fill="#263238"/>
<path d="M162.346 21.9282V24.2076H162.997C163.6 23.4116 164.36 22.7724 165.277 22.29C166.218 21.8076 167.424 21.5664 168.895 21.5664C170.439 21.5664 171.85 21.9162 173.128 22.6156C174.406 23.3151 175.432 24.3885 176.203 25.8357C176.975 27.2588 177.361 29.0317 177.361 31.1543C177.361 33.2527 176.975 35.0377 176.203 36.509C175.432 37.9562 174.394 39.0537 173.092 39.8014C171.813 40.525 170.414 40.8868 168.895 40.8868C167.472 40.8868 166.266 40.6456 165.277 40.1632C164.288 39.6567 163.516 38.9813 162.961 38.1371H162.31V47.6526H158.258V21.9282H162.346ZM162.599 31.1543C162.599 33.0357 163.094 34.5191 164.083 35.6045C165.072 36.6658 166.362 37.1964 167.954 37.1964C169.522 37.1964 170.752 36.6658 171.645 35.6045C172.537 34.5191 172.983 33.0357 172.983 31.1543C172.983 29.297 172.537 27.8618 171.645 26.8488C170.776 25.8116 169.546 25.293 167.954 25.293C166.338 25.293 165.036 25.8116 164.047 26.8488C163.082 27.8618 162.599 29.297 162.599 31.1543Z" fill="#263238"/>
<path d="M150.843 23.3759C150.747 22.194 150.313 21.3257 149.541 20.7709C148.793 20.2161 147.696 19.9388 146.248 19.9388C143.354 19.9388 141.907 20.9639 141.907 23.0141C141.907 23.9066 142.208 24.5819 142.811 25.0402C143.438 25.4985 144.355 25.8362 145.561 26.0533L148.383 26.5598C150.457 26.9216 152.134 27.609 153.412 28.6221C154.715 29.6352 155.366 31.215 155.366 33.3618C155.366 34.8572 154.98 36.1597 154.208 37.2693C153.436 38.3547 152.387 39.1868 151.06 39.7657C149.734 40.3446 148.25 40.6341 146.61 40.6341C144.946 40.6341 143.414 40.3446 142.015 39.7657C140.616 39.1627 139.471 38.2582 138.578 37.0522C137.686 35.8462 137.179 34.3628 137.059 32.602H141.292C141.629 35.3517 143.402 36.7266 146.61 36.7266C148.106 36.7266 149.227 36.4371 149.975 35.8582C150.747 35.2793 151.133 34.4472 151.133 33.3618C151.133 32.4693 150.795 31.806 150.12 31.3718C149.444 30.9135 148.455 30.5759 147.153 30.3588L144.331 29.8522C142.45 29.5146 140.87 28.8151 139.591 27.7538C138.313 26.6925 137.674 25.1246 137.674 23.0503C137.674 21.5789 138.048 20.3126 138.795 19.2513C139.567 18.19 140.604 17.3941 141.907 16.8634C143.209 16.3086 144.657 16.0312 146.248 16.0312C148.709 16.0312 150.759 16.6584 152.399 17.9126C154.063 19.1669 154.956 20.988 155.077 23.3759H150.843Z" fill="#263238"/>
<path d="M134.159 40.2723H130.18V38.1738H129.601C128.612 39.814 126.863 40.6341 124.354 40.6341C122.256 40.6341 120.616 40.0431 119.434 38.8612C118.276 37.6552 117.697 35.8824 117.697 33.5427V21.9287H121.967V32.602C121.967 34.0975 122.22 35.1588 122.726 35.7859C123.257 36.3889 124.222 36.6904 125.621 36.6904C127.068 36.6904 128.141 36.2683 128.841 35.4241C129.565 34.5557 129.926 33.1809 129.926 31.2995V21.9287H134.159V40.2723Z" fill="#263238"/>
<path d="M110.662 40.2723V37.9929H110.011C109.408 38.7889 108.636 39.4281 107.695 39.9105C106.779 40.3929 105.585 40.6341 104.114 40.6341C102.522 40.6341 101.099 40.2844 99.8443 39.5849C98.59 38.8854 97.589 37.8241 96.8413 36.401C96.1177 34.9538 95.7559 33.1688 95.7559 31.0462C95.7559 28.9478 96.1177 27.1629 96.8413 25.6915C97.589 24.2202 98.59 23.1227 99.8443 22.3991C101.123 21.6755 102.546 21.3137 104.114 21.3137C105.537 21.3137 106.731 21.5669 107.695 22.0735C108.684 22.58 109.468 23.2433 110.047 24.0634H110.698V15.9951H114.751V40.2723H110.662ZM110.409 31.0462C110.409 29.1649 109.915 27.6935 108.926 26.6322C107.937 25.5468 106.646 25.0041 105.054 25.0041C103.486 25.0041 102.268 25.5347 101.4 26.596C100.556 27.6573 100.134 29.1407 100.134 31.0462C100.134 32.9276 100.556 34.3749 101.4 35.3879C102.244 36.401 103.462 36.9075 105.054 36.9075C106.67 36.9075 107.961 36.401 108.926 35.3879C109.915 34.3507 110.409 32.9035 110.409 31.0462Z" fill="#263238"/>
<path d="M77.9473 16.3926H93.4326V20.3001H82.1804V25.9443H92.3471V29.8156H82.1804V36.4004H93.5773V40.2718H77.9473V16.3926Z" fill="#263238"/>
</svg>
