<svg width="120" height="225" viewBox="0 0 120 225" fill="none" xmlns="http://www.w3.org/2000/svg">
<path d="M115.725 50.0582C93.8013 82.2265 71.0468 119.478 66.3752 159.144C66.3221 159.744 67.2673 159.911 67.3858 159.313C69.727 148.402 72.7792 137.784 76.5791 127.393C91.4614 122.744 106.088 118.853 113.534 103.446C121.125 87.6106 119.526 67.3027 117.516 50.3553C117.385 49.4489 116.173 49.4392 115.725 50.0582Z" fill="#37474F"/>
<path d="M76.0861 126.655C86.1784 103.129 99.1798 79.4862 115.778 60.0805C115.89 59.9501 116.067 60.136 115.963 60.2665C105.103 74.0799 96.8835 89.0994 88.8588 104.376C96.3619 96.5016 104.596 89.4367 111.699 81.092C111.838 80.9296 112.061 81.1629 111.931 81.3253C104.881 90.0697 97.1818 99.5746 87.968 106.076C85.5124 110.762 83.0418 115.466 80.5357 120.167C81.1554 119.809 81.7956 119.487 82.4316 119.161C82.5433 119.104 82.6441 119.273 82.531 119.333C81.8269 119.702 81.1309 120.091 80.405 120.411C79.2173 122.636 78.0419 124.863 76.8203 127.083C76.5465 127.579 75.8723 127.151 76.0861 126.655Z" fill="#AFB7BB"/>
<path d="M83.6588 118.418C89.751 114.8 95.6252 110.915 101.099 106.371C101.247 106.247 101.465 106.457 101.315 106.589C95.9411 111.292 90.2045 115.511 83.9135 118.856C83.6302 119.006 83.3796 118.584 83.6588 118.418Z" fill="#AFB7BB"/>
<path d="M63.5978 162.858C63.6578 163.335 64.4559 163.302 64.4314 162.794C64.1807 149.784 63.7027 136.722 63.5229 123.65C66.601 116.829 73.513 112.901 78.2404 107.368C81.6494 103.377 84.5341 98.9002 86.9761 94.1838C92.6978 83.0007 95.6138 70.5322 96.5167 57.993C97.4688 44.0409 90.9844 -1.71451 85.275 0.0496396C82.3141 0.964332 73.3033 23.9884 70.9552 31.5808C67.1104 44.0714 64.524 56.9729 62.955 69.9618C59.1578 100.707 60.4394 132.123 63.5978 162.858Z" fill="#37474F"/>
<path d="M61.9107 106.752C61.9297 106.735 61.9474 106.717 61.9665 106.699C62.198 90.2221 65.3646 73.4954 68.316 57.4334C71.4963 40.1292 75.3248 23.8119 83.5715 8.2191C83.7254 7.92901 84.1463 8.16912 84.0087 8.46338C78.4369 20.5029 74.5702 33.2253 71.7046 46.2558C72.259 45.3106 72.9413 44.4112 73.5215 43.5173C73.7503 43.1662 74.3169 43.4701 74.0922 43.8352C73.2777 45.1566 72.5518 46.6903 71.4894 47.8201C71.454 47.8576 71.4159 47.8631 71.3777 47.877C68.7382 60.2552 66.95 72.8916 65.4695 85.4849C65.603 85.3225 65.7296 85.1462 65.8645 84.988C65.9557 84.8825 66.1178 85.0088 66.0565 85.1296C65.8413 85.5515 65.5975 85.9721 65.3606 86.394C64.6169 92.7872 63.9387 99.165 63.2563 105.487C74.1017 95.4716 83.2746 83.7735 88.2322 69.5465C88.2553 69.4812 88.3602 69.5049 88.3384 69.5729C83.5048 84.3218 75.5999 97.5383 63.116 106.767C62.9322 108.472 62.7469 110.175 62.5576 111.869C62.5181 112.222 61.9679 112.146 61.9597 111.806C61.9216 110.307 61.9502 108.8 61.9651 107.297C61.8058 107.161 61.7227 106.921 61.9107 106.752Z" fill="#AFB7BB"/>
<path d="M66.4717 82.7529C74.6027 69.5766 82.1848 56.7875 87.9977 42.3163C88.0617 42.1553 88.3341 42.2607 88.2783 42.4273C83.4419 56.7778 76.5108 71.3796 66.9075 83.0749C66.7114 83.3136 66.3083 83.0194 66.4717 82.7529Z" fill="#AFB7BB"/>
<path d="M76.5461 39.4588C79.887 33.0074 83.4227 26.7198 86.5525 20.1476C86.6397 19.9644 86.8889 20.1157 86.8195 20.2961C84.2263 26.9946 81.0951 33.8111 77.0977 39.7656C76.8743 40.1001 76.3527 39.8322 76.5461 39.4588Z" fill="#AFB7BB"/>
<path d="M75.2505 42.2608C75.32 42.2594 75.324 42.369 75.2532 42.3718C75.1838 42.3732 75.1797 42.2621 75.2505 42.2608Z" fill="#AFB7BB"/>
<path d="M56.8665 123.648C56.8938 132.272 56.225 140.919 54.6124 149.361C54.7704 150.282 54.9271 151.204 55.0878 152.153C57.4876 142.738 58.8019 124.152 58.7883 122.574C58.7883 122.574 58.7883 122.574 58.7855 122.546C58.9013 109.635 57.3568 96.6277 54.8685 83.9289C50.2378 60.1427 40.9518 37.4573 24.0838 20.0254C23.5499 19.4882 22.523 19.8047 22.2873 20.4584C16.1734 37.7585 19.0554 58.0996 25.1625 74.9971C28.483 84.0982 33.1014 92.7968 38.8707 100.536C44.7109 108.409 52.0587 115.001 56.8665 123.648Z" fill="#37474F"/>
<path d="M26.2452 27.9727C42.4759 53.1551 54.1262 83.2373 56.3054 113.487C56.3435 114.023 55.4609 114.191 55.3724 113.644C54.9284 110.933 54.4435 108.249 53.9396 105.576C53.9301 105.569 53.9205 105.574 53.9124 105.566C47.3218 99.4949 40.55 93.0851 35.7341 85.397C35.6496 85.2624 35.8403 85.0944 35.9506 85.2166C41.7145 91.5514 47.1107 98.0555 53.5746 103.664C52.2739 97.0007 50.7717 90.4493 49.0297 84.0007C48.6007 83.5287 48.1825 83.0444 47.7617 82.5683C47.4839 82.2546 47.9183 81.7729 48.2084 82.0852C48.3351 82.2226 48.4645 82.3587 48.5925 82.4947C46.1423 73.6434 43.2141 64.992 39.7424 56.5085C35.6592 51.8282 31.1293 47.8114 28.0907 42.1178C28.0158 41.979 28.201 41.8651 28.2936 41.9887C30.6989 45.2255 33.0292 48.4845 35.7395 51.4743C36.8182 52.6652 37.9977 53.7728 39.1145 54.9332C35.3269 45.8807 30.8855 37.0266 25.6568 28.346C25.4212 27.9574 26.0001 27.591 26.2452 27.9727Z" fill="#AFB7BB"/>
<path d="M30.2768 59.5093C35.4836 66.2342 41.3796 72.6231 46.2392 79.5881C46.3794 79.788 46.0934 80.0059 45.9232 79.8518C39.7752 74.3068 34.488 66.6423 29.9459 59.7203C29.8028 59.5024 30.1256 59.3122 30.2768 59.5093Z" fill="#AFB7BB"/>
<path d="M46.9854 81.1598L47.2046 81.3708C47.3572 81.5179 47.1338 81.758 46.9813 81.6123L46.762 81.4013C46.6095 81.2528 46.8328 81.0113 46.9854 81.1598Z" fill="#AFB7BB"/>
<path d="M0.355601 70.3251C1.97635 83.4806 9.23296 99.0373 17.8257 108.956C21.6337 113.343 26.195 116.651 31.3909 119.115C37.2188 121.842 43.33 125.001 49.3404 127.203C52.3245 134.349 54.6657 141.858 56.2538 149.709C56.4267 149.043 56.5984 148.349 56.7713 147.683C52.0071 114.397 29.9895 86.4745 2.34136 68.9496C1.34712 68.3195 0.215317 69.2008 0.355601 70.3251Z" fill="#37474F"/>
<path d="M10.0069 79.9167C9.81077 79.7501 10.0587 79.392 10.2725 79.5433C24.9559 89.9713 38.3591 105.414 46.0706 121.936C46.2817 122.387 45.6757 122.806 45.4087 122.356C44.0849 120.142 42.7365 117.989 41.3677 115.877C41.3596 115.876 41.3568 115.883 41.3487 115.881C35.1231 114.876 29.1345 110.608 24.4179 106.529C24.2899 106.418 24.4683 106.228 24.5964 106.336C27.0575 108.421 29.6888 110.317 32.5898 111.713C35.1503 112.945 37.892 113.688 40.5492 114.657C38.148 111.013 35.6556 107.524 33.061 104.146C26.3315 102.029 19.869 98.0453 14.15 94.034C13.9702 93.9077 14.1173 93.6093 14.3162 93.7231C20.1236 97.0557 25.8399 99.9705 31.8789 102.634C27.9809 97.6775 23.7819 92.9972 19.2561 88.4862C17.1191 87.416 14.9536 86.3417 12.8793 85.1897C12.7104 85.0967 12.8112 84.8038 13.0032 84.8621C14.6431 85.3659 16.3224 86.1835 17.8886 87.1315C15.369 84.6831 12.7758 82.2666 10.0069 79.9167Z" fill="#AFB7BB"/>
<path d="M10.9114 91.432C11.2927 91.6638 11.6373 91.872 11.9765 92.1607C12.0786 92.2481 11.9547 92.3814 11.8498 92.3384C11.448 92.1732 11.1157 91.9691 10.7439 91.7429C10.5546 91.6263 10.7193 91.3154 10.9114 91.432Z" fill="#AFB7BB"/>
<path d="M89.8308 129.739L88.7412 155.126L85.7449 224.762H37.4629L34.4665 155.126L33.377 129.739H89.8308Z" fill="#FDC886"/>
<path d="M89.8308 129.739L88.7412 155.126H34.4665L33.377 129.739H89.8308Z" fill="#AFB7BB"/>
<path d="M93.9867 124.528H29.2207V140.528H93.9867V124.528Z" fill="#FDC886"/>
</svg>
